<svg xmlns="http://www.w3.org/2000/svg" xml:space="preserve" width="512" height="512">
  <g fill-rule="evenodd" clip-rule="evenodd">
    <path fill="#FFCC80" d="M241.58 438.479c-2.208 0-4 1.793-4 4 0 2.212 1.788 4 4 4H394.4c2.212 0 4-1.788 4-4 0-2.207-1.793-4-4-4zm0-45.728c-2.212 0-4 1.788-4 4s1.788 4 4 4H394.4c2.212 0 4-1.788 4-4s-1.788-4-4-4zm199.218-140.064a39.87 39.87 0 0 0-12.807-2.105h-19.34V97.54a4.013 4.013 0 0 0-1.168-2.832l-44.11-44.11a4.02 4.02 0 0 0-2.832-1.178h-178.75V12h220.171v40.119c0 2.207 1.793 4 4 4h40.119v198.357zM364.541 93.54H395l-30.459-30.459zm45.421-45.421h30.45l-30.45-30.468zM221.533 176.508c-6.853-11.852-18.302-18.456-31.992-18.456H84.009c-17.676 0-32.057 14.369-32.057 32.048v60.483h212.41zm206.458 82.07c17.677 0 32.057 14.374 32.057 32.053v177.312c0 17.675-14.382 32.057-32.057 32.057H84.009c-17.675 0-32.057-14.382-32.057-32.057V258.578z"/>
    <path fill="#FF9800" d="M394.4 434.479H241.58c-4.42 0-8 3.59-8 8 0 4.42 3.58 8 8 8H394.4c4.42 0 8-3.581 8-8 0-4.41-3.58-8-8-8zm0-45.728H241.58c-4.42 0-8 3.58-8 8s3.58 8 8 8H394.4c4.42 0 8-3.58 8-8 0-4.419-3.58-8-8-8zm61.648-98.12v177.312c0 15.467-12.59 28.057-28.057 28.057H84.009c-15.467 0-28.057-12.59-28.057-28.057V262.578H427.99c15.468 0 28.058 12.581 28.058 28.053zM55.952 190.1v56.483h201.477l-39.36-68.073c-6.137-10.618-16.269-16.458-28.529-16.458H84.009c-15.467 0-28.057 12.576-28.057 28.048zm84.418-44.049v-84.63h212.171V97.54c0 4.42 3.58 8 8 8h36.109v141.042H275.911L231.919 170.5c-8.981-15.538-24.43-24.449-42.378-24.449zM368.541 89.54h16.802l-16.802-16.802zM185.79 45.421V16h212.171v36.119c0 4.411 3.58 8 8 8h36.119v188.779a43.817 43.817 0 0 0-14.09-2.316h-15.34V97.54c0-2.118-.84-4.16-2.34-5.66L366.2 47.77a8.023 8.023 0 0 0-5.661-2.349zm228.172-1.302h16.798l-16.798-16.807zm58.086 246.512v177.312c0 24.298-19.769 44.058-44.058 44.058H84.009c-24.298 0-44.058-19.76-44.058-44.058V190.1c0-24.288 19.76-44.048 44.058-44.048h40.36v-92.63c0-4.42 3.58-8 8-8h37.421V8c0-4.42 3.58-8 8-8h228.171c2.118 0 4.16.84 5.661 2.34l44.11 44.119a8.004 8.004 0 0 1 2.349 5.66v206.374c8.59 8.038 13.967 19.468 13.967 32.138zM259.34 162.641c0 4.41 3.58 8 8 8h81.747a7.999 7.999 0 1 0 0-16H267.34c-4.42 0-8 3.58-8 8zm52.28-47.501c0-4.42-3.58-8-8-8H187.932c-4.42 0-8 3.58-8 8s3.58 8 8 8h115.687c4.42 0 8.001-3.58 8.001-8zm45.472 94.988c0-4.415-3.58-7.995-8.005-7.995h-63.766a7.998 7.998 0 1 0 0 15.995h63.766a7.998 7.998 0 0 0 8.005-8z"/>
  </g>
</svg>