<svg xmlns="http://www.w3.org/2000/svg" xml:space="preserve" viewBox="0 0 1437 659">
  <linearGradient id="a" x1="1052.08" x2="148.011" y1="125.093" y2="681.787" gradientTransform="matrix(1 0 0 -1 0 660)" gradientUnits="userSpaceOnUse">
    <stop offset="0" stop-color="#023e5d"/>
    <stop offset="1" stop-color="#026aa1"/>
  </linearGradient>
  <path fill="url(#a)" d="M0 0h1437v659H0z"/>
  <path fill="#fff" fill-opacity=".05" d="M633.1 246.4 1237 529c50 23.4 70.7 82.5 46.3 132l-111.5 225.5c-24.5 49.5-84.9 70.7-134.9 47.3l-604-282.6c-50-23.4-70.7-82.5-46.3-132l111.5-225.5c24.6-49.6 84.9-70.7 135-47.3z" opacity=".5"/>
  <path fill="#fff" fill-opacity=".05" d="m76.3 373.4 433.8 203c50 23.4 70.7 82.5 46.3 132l-68.1 137.8c-24.5 49.5-84.9 70.7-134.9 47.3l-433.8-203c-50-23.4-70.7-82.5-46.3-132l68.1-137.8c24.5-49.6 84.9-70.7 134.9-47.3z" opacity=".5"/>
  <path fill="#fff" fill-opacity=".05" d="m-23 100.4 282 132c50 23.4 70.7 82.5 46.3 132l-29.4 59.5c-24.5 49.5-84.9 70.7-134.9 47.3l-282-132c-50-23.4-70.7-82.5-46.3-132l29.4-59.5C-133.4 98.1-73 77-23 100.4zM1319.8 270.4l282 132c50 23.4 70.7 82.5 46.3 132l-29.4 59.5c-24.5 49.5-84.9 70.7-134.9 47.3l-282-132c-50-23.4-70.7-82.5-46.3-132l29.4-59.5c24.5-49.6 84.9-70.7 134.9-47.3z" opacity=".6"/>
  <path fill="#fff" fill-opacity=".05" d="M1360.8-37.6 1964.7 245c50 23.4 70.7 82.5 46.3 132l-111.5 225.5c-24.5 49.5-84.9 70.7-134.9 47.3l-603.9-282.6c-50-23.4-70.7-82.5-46.3-132L1225.9 9.6c24.5-49.5 84.9-70.6 134.9-47.2zM635.1-585.6 1239-303c50 23.4 70.7 82.5 46.3 132L1173.8 54.6c-24.5 49.5-84.9 70.7-134.9 47.3L435-180.8c-50-23.4-70.7-82.5-46.3-132l111.5-225.5c24.5-49.6 84.9-70.7 134.9-47.3z" opacity=".5"/>
</svg>