<svg xmlns="http://www.w3.org/2000/svg" xml:space="preserve" viewBox="0 0 512 512">
  <path fill="#fff" d="M0 0h512v512H0z"/>
  <g fill-rule="evenodd" clip-rule="evenodd">
    <path fill="#cadcf0" d="M416 284.9H96V433c0 7.1 4.6 13.3 11.4 15.3 32.2 9.6 122.6 36.8 144 43.2 3 .9 6.2.9 9.2 0 21.4-6.4 111.8-33.6 144-43.2 6.8-2 11.4-8.3 11.4-15.3V284.9z"/>
    <path fill="#a4bbdb" d="M416 284.9H256s-1.6 207.3 0 207.3 3.1-.2 4.6-.7c21.4-6.4 111.8-33.6 144-43.2 6.8-2 11.4-8.3 11.4-15.3V284.9z"/>
    <path fill="#e9f3fc" d="M256 336.8 96 284.9s-28.1 41.6-40.6 60.2c-1.4 2.1-1.8 4.7-.9 7.1.8 2.4 2.7 4.2 5.1 5 30.4 9.9 120.4 39.1 144 46.8 3.4 1.1 7.1-.2 9.1-3.1 10.6-15.9 43.3-64.1 43.3-64.1zM416 284.9l-160 51.9s32.7 48.2 43.4 64c2 3 5.7 4.2 9.1 3.1 23.6-7.7 113.6-36.9 144-46.8 2.4-.8 4.3-2.6 5.1-5 .8-2.4.5-5-.9-7.1-12.6-18.5-40.7-60.1-40.7-60.1z"/>
    <path fill="#cadcf0" d="M217.3 175.9c-2-2.9-5.7-4.2-9.1-3.1-23.6 7.7-113.6 36.9-144 46.8-2.4.8-4.3 2.6-5.1 5-.8 2.4-.5 5 .9 7.1 11.6 17.1 36 53.2 36 53.2l160-52.1s-28.7-42.2-38.7-56.9z"/>
    <path fill="#e9f3fc" d="M451.9 231.6c1.4-2.1 1.8-4.7.9-7.1-.8-2.4-2.7-4.2-5.1-5-30.4-9.9-120.4-39.1-144-46.8-3.4-1.1-7.1.2-9.1 3.1-10 14.7-38.7 57-38.7 57l160 52.1c.1 0 24.5-36.1 36-53.3z"/>
    <path fill="#cadcf0" d="m416 284.9-160-52.1-160 52.1 160 51.9 160-51.9z"/>
    <path fill="#a4bbdb" d="M256 336.8v-104L96 284.9l160 51.9z"/>
    <path fill="#026AA2" d="M223.9 255.8c-3.3-2.2-6.3-4.5-9-6.9-3.2-3-8.3-2.8-11.3.5-3 3.2-2.8 8.3.5 11.3s7 5.9 11.1 8.6c3.7 2.4 8.7 1.4 11.1-2.3 2.3-3.8 1.3-8.8-2.4-11.2zM198.9 231.2c-2.4-3.2-4.4-6.5-6-9.7-2-3.9-6.8-5.5-10.8-3.5s-5.5 6.8-3.5 10.8c2 4 4.5 8 7.4 11.9 2.6 3.6 7.6 4.3 11.2 1.7 3.6-2.6 4.3-7.6 1.7-11.2zM187.2 198.6c.1-3.2.6-6.4 1.4-9.4 1.2-4.2-1.2-8.7-5.5-9.9-4.2-1.2-8.7 1.2-9.9 5.5-1.2 4.3-1.9 8.8-2 13.4-.1 4.4 3.4 8.1 7.8 8.2 4.4.1 8.1-3.4 8.2-7.8zM199.5 171.9c2.1-1.9 4.4-3.7 6.9-5.3 3.7-2.4 4.9-7.3 2.5-11-2.4-3.7-7.3-4.9-11-2.5-3.4 2.1-6.5 4.5-9.2 7.1-3.2 3-3.4 8.1-.4 11.3s8 3.4 11.2.4zM229.3 158.1c4-.7 8.3-1.2 12.8-1.4 4.4-.2 7.8-3.9 7.7-8.3-.2-4.4-3.9-7.8-8.3-7.7-5.3.2-10.3.8-15 1.7-4.3.8-7.2 5-6.4 9.3.7 4.3 4.8 7.2 9.2 6.4zM271 157.6c6.8.1 13.2-.2 19.1-.7 4.4-.4 7.7-4.3 7.3-8.7-.4-4.4-4.3-7.6-8.7-7.3-5.4.5-11.2.7-17.5.6-4.4 0-8 3.5-8.1 7.9-.1 4.5 3.5 8.2 7.9 8.2zM316.4 152c7.9-2.4 14.6-5.5 20.2-9.1 3.7-2.4 4.8-7.3 2.4-11s-7.3-4.8-11-2.4c-4.5 2.9-9.9 5.3-16.3 7.3-4.2 1.3-6.6 5.8-5.3 10 1.3 4.1 5.7 6.5 10 5.2zM357.1 120.5c3.8-7.8 5.2-16.1 4.9-24-.2-4.4-4-7.8-8.4-7.6s-7.8 4-7.6 8.4c.3 5.4-.7 11-3.3 16.3-1.9 4-.3 8.8 3.7 10.7 4 1.9 8.8.2 10.7-3.8zM352 68.2c-5.8-7.9-13.7-13.4-22.4-15.1-4.3-.9-8.6 1.9-9.4 6.2-.9 4.3 1.9 8.6 6.2 9.4 5 1 9.4 4.4 12.7 9 2.6 3.5 7.6 4.3 11.2 1.7 3.6-2.6 4.3-7.6 1.7-11.2z"/>
    <path fill="#cadcf0" d="M247.5 54.6c8.7-49 83.7-45.8 40 0h-40zM247.5 67.1c8.7 49 83.7 45.8 40 0h-40z"/>
    <path fill="#026AA2" d="M246.7 68.9h53.6c4.4 0 8-3.6 8-8s-3.6-8-8-8h-53.6c-4.4 0-8 3.6-8 8s3.6 8 8 8z"/>
  </g>
</svg>