<svg xmlns="http://www.w3.org/2000/svg" xml:space="preserve" viewBox="0 0 512 512">
  <path fill="#fff" d="M0 0h512v512H0z"/>
  <linearGradient id="a" x1="207.052" x2="215.052" y1="314.252" y2="314.252" gradientTransform="scale(-10.267 10.267) rotate(73.733 280.461 11.08)" gradientUnits="userSpaceOnUse">
    <stop offset="0" stop-color="#559aff"/>
    <stop offset="1" stop-color="#2e69ef"/>
  </linearGradient>
  <path fill="url(#a)" fill-rule="evenodd" d="m338 253.6-84.9 84.8s30.2-9.4 73.5 5.7c7.3 2.5 19.5-9.7 17-17-15-43.4-5.6-73.5-5.6-73.5z" clip-rule="evenodd"/>
  <linearGradient id="b" x1="202.419" x2="210.419" y1="307.081" y2="307.081" gradientTransform="scale(31.2621 -31.2621) rotate(-42.338 -298.57 408.07)" gradientUnits="userSpaceOnUse">
    <stop offset="0" stop-color="#fff"/>
    <stop offset="1" stop-color="#e9f3fc"/>
  </linearGradient>
  <path fill="url(#b)" fill-rule="evenodd" d="M110.9 111.3c51.5-51.5 135.2-51.5 186.7 0s51.5 135.2 0 186.7-135.2 51.5-186.7 0-51.5-135.2 0-186.7z" clip-rule="evenodd"/>
  <path fill="#e5eef8" fill-rule="evenodd" d="M280.5 96.9c6 4.2 11.7 9.1 17.1 14.4 51.5 51.5 51.5 135.2 0 186.7s-135.2 51.5-186.7 0c-3-3-5.9-6.2-8.6-9.4 49.9 16.2 107 4.5 146.7-35.1 42.3-42.3 52.8-104.5 31.5-156.6z" clip-rule="evenodd"/>
  <linearGradient id="c" x1="202.666" x2="210.666" y1="306.021" y2="306.021" gradientTransform="scale(30.5522 -30.5522) rotate(-77.382 -88.704 274.321)" gradientUnits="userSpaceOnUse">
    <stop offset="0" stop-color="#a4bbdb"/>
    <stop offset="1" stop-color="#8da3be"/>
  </linearGradient>
  <path fill="url(#c)" fill-rule="evenodd" d="M99.6 100c57.8-57.8 151.5-57.8 209.3 0s57.8 151.5 0 209.3-151.5 57.8-209.3 0-57.8-151.5 0-209.3zm17 17c48.4-48.4 127-48.4 175.4 0s48.4 127 0 175.4-127 48.4-175.4 0-48.4-127 0-175.4z" clip-rule="evenodd"/>
  <linearGradient id="d" x1="200.799" x2="208.799" y1="305.514" y2="305.514" gradientTransform="scale(26.9576 -26.9576) rotate(-71.826 -109.852 286.707)" gradientUnits="userSpaceOnUse">
    <stop offset="0" stop-color="#cadcf0"/>
    <stop offset="1" stop-color="#a4bbdb"/>
  </linearGradient>
  <path fill="url(#d)" fill-rule="evenodd" d="M71.7 270.5C44.2 215.1 53.5 146.1 99.6 100c43.3-43.3 106.8-54.1 160.2-32.5.4 4.9.6 9.9.6 14.9 0 3.9-.1 7.7-.4 11.5-46.4-23.4-104.6-15.7-143.4 23.1-41.2 41.1-47.3 104-18.5 151.7-8.4 1.2-17 1.8-25.8 1.8h-.6z" clip-rule="evenodd"/>
  <linearGradient id="e" x1="210.041" x2="218.041" y1="324.665" y2="324.665" gradientTransform="scale(-10.4852 10.4852) rotate(62.505 324.07 -25.366)" gradientUnits="userSpaceOnUse">
    <stop offset="0" stop-color="#a4bbdb"/>
    <stop offset="1" stop-color="#8da3be"/>
  </linearGradient>
  <path fill="url(#e)" fill-rule="evenodd" d="M320.2 371.5c-14.1-14.1-14.1-36.8 0-50.9 14.1-14.1 36.9-14.1 50.9 0l116 116c3.1 3.1-5.8 17.1-19.8 31.1s-28 22.9-31.1 19.8l-116-116z" clip-rule="evenodd"/>
  <linearGradient id="f" x1="211.11" x2="219.11" y1="325.245" y2="325.245" gradientTransform="scale(-9.6248 9.6248) rotate(65.758 307.171 -14.354)" gradientUnits="userSpaceOnUse">
    <stop offset="0" stop-color="#e9f3fc"/>
    <stop offset="1" stop-color="#cadcf0"/>
  </linearGradient>
  <path fill="url(#f)" fill-rule="evenodd" d="M320.2 371.5c-14.1-14.1-14.1-36.8 0-50.9 14.1-14.1 36.9-14.1 50.9 0l105 105c3.1 3.1-5.8 17.1-19.8 31.1s-28 22.9-31.1 19.8l-105-105z" clip-rule="evenodd"/>
  <linearGradient id="g" x1="201.524" x2="209.524" y1="306.5" y2="306.5" gradientTransform="scale(17.2192 -17.2192) rotate(-72.737 -107.17 278.505)" gradientUnits="userSpaceOnUse">
    <stop offset="0" stop-color="#559aff"/>
    <stop offset="1" stop-color="#2e69ef"/>
  </linearGradient>
  <path fill="url(#g)" fill-rule="evenodd" d="M187.3 179.5c-.2-7.6 2.7-13.2 7.1-16.5 6.9-5.1 17.3-4.9 23 1.4 2.4 2.7 3.8 6.6 3.9 11.5.1 11.7-5.4 18.5-10.8 25.6-7.2 9.5-14.5 19.4-15.4 35.7-.2 4.4 3.2 8.2 7.6 8.4 4.4.2 8.2-3.1 8.4-7.6.7-12.4 6.6-19.7 12.1-26.9 7.4-9.7 14.2-19.4 14-35.4-.1-9.4-3.2-16.7-7.9-22-10.9-12.3-31-13.6-44.4-3.7-8.1 6-13.9 15.8-13.6 29.7.1 4.4 3.8 7.9 8.2 7.8 4.4.1 7.9-3.6 7.8-8z" clip-rule="evenodd"/>
  <linearGradient id="h" x1="201.524" x2="209.524" y1="304.843" y2="304.843" gradientTransform="scale(17.2192 -17.2192) rotate(-72.737 -107.17 278.505)" gradientUnits="userSpaceOnUse">
    <stop offset="0" stop-color="#559aff"/>
    <stop offset="1" stop-color="#2e69ef"/>
  </linearGradient>
  <circle cx="202.3" cy="265.6" r="9.8" fill="url(#h)" fill-rule="evenodd" clip-rule="evenodd"/>
  <linearGradient id="i" x1="191.229" x2="199.229" y1="301.69" y2="301.69" gradientTransform="matrix(-12.2329 9.0986 9.0986 12.2329 -.068 -5426.884)" gradientUnits="userSpaceOnUse">
    <stop offset="0" stop-color="#559aff"/>
    <stop offset="1" stop-color="#2e69ef"/>
  </linearGradient>
  <path fill="url(#i)" fill-rule="evenodd" d="m346.3 68 24-40c2.3-3.8 1-8.7-2.7-11-3.8-2.3-8.7-1-11 2.7l-24 40c-2.3 3.8-1 8.7 2.7 11 3.8 2.3 8.7 1.1 11-2.7z" clip-rule="evenodd"/>
  <linearGradient id="j" x1="191.229" x2="199.229" y1="305.14" y2="305.14" gradientTransform="matrix(-12.2329 9.0986 9.0986 12.2329 -.068 -5426.884)" gradientUnits="userSpaceOnUse">
    <stop offset="0" stop-color="#559aff"/>
    <stop offset="1" stop-color="#2e69ef"/>
  </linearGradient>
  <path fill="url(#j)" fill-rule="evenodd" d="m384.2 94.3 88-64c3.6-2.6 4.4-7.6 1.8-11.2-2.6-3.6-7.6-4.4-11.2-1.8l-88 64c-3.6 2.6-4.4 7.6-1.8 11.2 2.6 3.6 7.6 4.4 11.2 1.8z" clip-rule="evenodd"/>
  <linearGradient id="k" x1="191.229" x2="199.229" y1="309.087" y2="309.087" gradientTransform="matrix(-12.2329 9.0986 9.0986 12.2329 -.068 -5426.884)" gradientUnits="userSpaceOnUse">
    <stop offset="0" stop-color="#559aff"/>
    <stop offset="1" stop-color="#2e69ef"/>
  </linearGradient>
  <path fill="url(#k)" fill-rule="evenodd" d="m397.4 143.6 64-16c4.3-1.1 6.9-5.4 5.8-9.7-1.1-4.3-5.4-6.9-9.7-5.8l-64 16c-4.3 1.1-6.9 5.4-5.8 9.7 1.1 4.3 5.4 6.9 9.7 5.8z" clip-rule="evenodd"/>
</svg>