<svg xmlns="http://www.w3.org/2000/svg" xml:space="preserve" viewBox="0 0 500 500">
  <path fill="#009688" d="M238.8 209.8c-32.6 0-58.7-26.3-58.6-59.3 0-32.3 26.4-58.4 59.1-58.4 32.6 0 58.7 26.3 58.6 59.3-.1 32.4-26.5 58.5-59.1 58.4zM381.1 392v-1.1c.2-1.8-.2-3.1-.1-4 .9-7.7-.6-13.2-6.8-18.8-13.6-12.2-26.4-25.4-39.6-38.1-2.1-2-2.7-3.8-1.9-6.9 4.7-19.1-6.4-37.6-25-41.8-19-4.3-37.1 7.6-41.1 27-4.8 23 16.1 43.8 39.8 39.3 4.7-.9 7.1.8 9.9 3.5 13.3 13 26.8 26 40 39.1 3.7 3.6 7 4.8 13.7 4.8 2.4 0 5.4.3 7.9.3M288 313.4c-6.5.1-11.9-5.2-11.9-11.5 0-6 5.4-11.5 11.4-11.7 6.2-.2 11.6 5.2 11.6 11.7 0 6.4-4.8 11.3-11.1 11.5z" opacity=".5"/>
  <path fill="#009688" d="M378.5 279.1c-7.2-6.1-10.1-12.4-11.1-21.5-2.5-22.9-14.2-33.8-36.5-37.6-18.1-3.1-36.1-7.2-54.2-10.7-1.5-.3-3.6.1-4.9.9-21.9 13.6-43.8 13.6-65.8 0-1.3-.8-3.3-1.2-4.9-.9-18.6 3.5-37.1 7.4-55.7 10.8-12.8 2.3-23.5 7.2-29.6 19.4-4.3 8.6-6.9 17.9-6.5 27.4 1 22.3 4.3 44.2 10.8 65.7 21.2 69.7 100.7 107 160.7 81.2 1.8-.8 4.4 0 6.5.5 9.8 2.5 19.4 6.6 29.3 7.3 48 3.4 88.2-34.7 88.2-82.7 0-22.8-9.1-45.6-26.3-59.8zM322 418.3c-43.8 0-79.3-35.5-79.3-79.3s35.5-79.3 79.3-79.3 79.3 35.5 79.3 79.3-35.4 79.3-79.3 79.3z"/>
</svg>