<svg xmlns="http://www.w3.org/2000/svg" xml:space="preserve" viewBox="0 0 384 256">
  <path fill="#026aa2" d="M90.8 58h34.1c12.6-.2 26.3 3.1 26.3 18.4 0 6.6-3.9 11.9-9.6 14.8 7.8 2.3 12.6 9 12.6 17.3 0 17.4-12.8 22.8-28.4 22.8h-35V58zm19 28.8h14.7c3.3 0 7.8-1.7 7.8-7s-3.8-7.1-7.8-7.1h-14.7v14.1zm0 29.2H125c6 0 10.2-2.2 10.2-8.2 0-6.5-4.5-8.6-10.2-8.6h-15.2V116zm74.6-58h19.3l27.3 73.2h-19.8l-4.5-13.1h-25.4l-4.6 13.1h-19.5L184.4 58zm1.2 46h16.5L194 78.4h-.2l-8.2 25.6zm50.6-46h19.5l25.3 45.1h.2V58h17.9v73.2h-19.5l-25.3-45.6h-.2v45.6h-17.9V58zm75.9 0h19v28.1l24-28.1h23.6l-27 28.8 30.3 44.4h-23.6l-19.6-30.8-7.8 8.2v22.6h-19l.1-73.2z"/>
  <path fill="#026aa2" d="M43 157.8H28v39.1H15v-39.1H0v-11.3h43v11.3zm5.8-11.3h25.6c8.9 0 17.6 4 17.6 14.2 0 5.4-2.6 10.6-7.9 12.6v.1c5.3 1.3 6.9 7.3 7.3 12.1.1 2.1.4 9.5 2.1 11.4H80.6c-1.1-1.7-1.3-6.6-1.5-8.1-.4-5.1-1.2-10.3-7.3-10.3h-9.9v18.4H48.8v-50.4zm13.1 21.9h11c3.9 0 6-2.1 6-5.9 0-3.7-3-5.4-6.6-5.4H61.9v11.3zm51.3-21.9h13.3l18.8 50.4h-13.6l-3.1-9H111l-3.2 9H94.5l18.7-50.4zm.9 31.7h11.4l-5.6-17.7h-.1l-5.7 17.7zm34.9-31.7h13.4l17.4 31.1h.1v-31.1h12.3v50.4h-13.4l-17.4-31.4h-.1v31.4H149v-50.4zm62.4 33.5c.3 5.9 3.9 7.8 9.5 7.8 3.9 0 8-1.4 8-5.2 0-4.4-7.2-5.3-14.4-7.3s-14.7-5.3-14.7-14.5c0-11 11-15.3 20.5-15.3 10 0 20 4.9 20.1 16.2h-13.1c.2-4.6-4.1-6.1-8.1-6.1-2.8 0-6.3 1-6.3 4.3 0 3.9 7.2 4.6 14.6 6.6 7.2 2 14.6 5.4 14.6 14.5 0 12.8-10.8 16.9-21.9 16.9-11.5 0-21.7-5.1-21.8-18l13 .1zm36.7-33.5h37V157h-23.9v10.3h20.7v10.2h-20.7v19.4h-13.1v-50.4zm43 0h40V157h-26.9v8.8h24.6V176h-24.6v9.6h27.6v11.3h-40.7v-50.4zm48.2 0h25.6c8.9 0 17.6 4 17.6 14.2 0 5.4-2.6 10.6-7.9 12.6v.1c5.3 1.3 6.9 7.3 7.3 12.1.1 2.1.4 9.5 2.1 11.4h-12.9c-1.1-1.7-1.3-6.6-1.5-8.1-.4-5.1-1.2-10.3-7.3-10.3h-9.9v18.4h-13.1v-50.4zm13.1 21.9h11c3.9 0 6-2.1 6-5.9 0-3.7-3-5.4-6.6-5.4h-10.4v11.3z" opacity=".5"/>
  <path fill="#b32318" d="M0 58h79.2v15.9H0V58zm0 57.3h79.2v15.9H0v-15.9zm0-28.6h79.2v15.9H0V86.7z"/>
</svg>