<svg xmlns="http://www.w3.org/2000/svg" xml:space="preserve" id="Layer_1" x="0" y="0" version="1.1" viewBox="0 0 256 256">
  <style>
    .st6{display:none}.st9{fill:#4569b2}.st10,.st9{display:inline}.st11{fill:#151449}.st14{fill:#392111}.st21{fill:#3a1e08}
  </style>
  <path fill="#fbfafc" d="M114.3 10.6c8.8-3.5 18.7-3.5 27.4 0l62.3 25c8.8 3.5 15.8 10.3 19.4 18.8l25.8 60.3c3.6 8.5 3.6 18.1 0 26.6l-25.8 60.3c-3.6 8.5-10.6 15.3-19.4 18.8l-62.3 25c-8.8 3.5-18.7 3.5-27.4 0l-62.3-25c-8.8-3.5-15.8-10.3-19.4-18.8L6.7 141.3c-3.6-8.5-3.6-18.1 0-26.6l25.8-60.3c3.6-8.5 10.6-15.3 19.4-18.8l62.4-25z"/>
  <path fill="#f8f6fa" d="M118.8 33.8c5.9-2.4 12.6-2.4 18.5 0l50.8 21.1c5.9 2.4 10.6 7.1 13.1 13.1l21.1 50.8c2.4 5.9 2.4 12.6 0 18.5l-21.1 50.8c-2.4 5.9-7.1 10.6-13.1 13.1l-50.8 21.1c-5.9 2.4-12.6 2.4-18.5 0L68 201.2c-5.9-2.4-10.6-7.1-13.1-13.1l-21.1-50.8c-2.4-5.9-2.4-12.6 0-18.5L54.9 68c2.4-6 7.1-10.7 13-13.1l50.9-21.1z"/>
  <path fill="#ece6f2" d="M119.8 77.6c5.3-2.2 11.2-2.2 16.5 0l21.6 8.9c5.3 2.2 9.5 6.4 11.6 11.6l8.9 21.6c2.2 5.3 2.2 11.2 0 16.5l-8.9 21.6c-2.2 5.3-6.4 9.5-11.6 11.6l-21.6 8.9c-5.3 2.2-11.2 2.2-16.5 0l-21.6-8.9c-5.3-2.2-9.5-6.4-11.6-11.6l-8.9-21.6c-2.2-5.3-2.2-11.2 0-16.5l8.9-21.6c2.2-5.3 6.4-9.5 11.6-11.6l21.6-8.9z"/>
  <path fill="#f99b1c" d="M19.5 49.7c-.2 2.5-2.2 5.6.2 7.7 2.1 1.8 4.8.5 7.2.6 2.7.2 1.5 2.6 1.2 4.3-.2 1.3-.4 2.7.2 4 1 2 3.6 3.2 5.6 1.8 1.2-.9 0-3-1.2-2.1-2 1.5-2.4-2.1-2.2-3.1.2-1.1.6-2.3.7-3.5 0-1.7-.9-3-2.5-3.5-2-.7-3.7.1-5.7 0-3.6-.1-1.2-4.3-1.1-6.3.2-1.5-2.3-1.5-2.4.1zM34.2 52c-1 2.1-1.9 4.7-.4 6.8.6.8 1.4 1.3 2.3 1.4.6.1 1.5-.2 2 0 .9.4 1.4 1.4 1 2.4-.7 1.4 1.4 2.6 2.1 1.2.8-1.8.5-3.8-1.1-5.1-.9-.7-1.7-.7-2.7-.8-2.9-.3-2.1-2.7-1.2-4.6.7-1.5-1.3-2.7-2-1.3z"/>
  <path fill="#64c4ac" d="M244.3 93.1c-.2-2.9 3.4-4.5 5-1.8 1.3 2.4-1.3 4.4-3.5 3.7-1.5-.5-2.1 1.8-.7 2.4 4.5 1.6 8.8-3.5 6.1-7.6-2.9-4.4-9.7-1.8-9.3 3.3.1 1.5 2.5 1.6 2.4 0z"/>
  <path fill="none" stroke="#7cc3ec" stroke-width="1.2" d="m86.3 209.5-4.7-1.7-4.2 2.6.3-4.6-4-2.9 4.9-1.2 1.7-4.4 2.8 3.9 5.1.2L85 205l1.3 4.5z"/>
  <path fill="#fecd1a" d="M151.1 116.3v23.3c0 1.7-1.3 3-3 3h-40.2c-1.7 0-3-1.3-3-3v-23.3c0-.8.3-1.5.8-2.1l16 13.6 2.2 1.9c2.4 2 5.8 2 8.2 0l2.2-1.9 16-13.6c.5.5.8 1.3.8 2.1z"/>
  <path fill="#ea3883" d="m150.3 114.2-16 13.6-2.2 1.9c-2.4 2-5.8 2-8.2 0l-2.2-1.9-16-13.6c.6-.6 1.3-.9 2.2-.9h40.2c.8 0 1.6.3 2.2.9z"/>
  <path fill="#ffb32c" d="M150.4 141.5c-.6.7-1.4 1-2.3 1h-40.2c-.9 0-1.7-.4-2.3-1l16.1-13.7 2.2 1.9c2.4 2 5.8 2 8.2 0l2.2-1.9 16.1 13.7z"/>
  <path d="M152 116.3c0-1-.4-2-1.1-2.7-.7-.8-1.7-1.2-2.8-1.2H128c-.5 0-.9.4-.9.9s.4.9.9.9h20.1c.2 0 .4 0 .7.1L131.5 129c-2 1.7-5 1.7-7 0l-17.3-14.7c.2-.1.4-.1.7-.1h8.2c.5 0 .9-.4.9-.9s-.4-.9-.9-.9h-8.2c-1.1 0-2.1.4-2.8 1.2-.7.7-1.1 1.7-1.1 2.7v23.3c0 .9.3 1.8.9 2.5.7.9 1.8 1.4 2.9 1.4H148c1.1 0 2.2-.5 2.9-1.3.6-.7.9-1.6.9-2.5v-23.4zm-16.3 11.6 14.4-12.3c.1.2.1.5.1.7v23.3c0 .2 0 .4-.1.6l-14.4-12.3zm-29.8 12.3c-.1-.2-.1-.4-.1-.6v-23.3c0-.2 0-.5.1-.7l14.4 12.3-14.4 12.3zm2 1.6c-.3 0-.6-.1-.8-.2l14.7-12.5 1.6 1.4c2.7 2.3 6.7 2.3 9.3 0l1.6-1.4 14.7 12.5c-.3.1-.5.2-.8.2h-40.3z" class="st21"/>
  <path d="M120.8 114.2h2.6c.5 0 .9-.4.9-.9s-.4-.9-.9-.9h-2.6c-.5 0-.9.4-.9.9s.4.9.9.9z" class="st21"/>
</svg>