<svg xmlns="http://www.w3.org/2000/svg" xml:space="preserve" viewBox="0 0 256 256">
  <path fill="#fbfafc" d="M114.3 10.6c8.8-3.5 18.7-3.5 27.4 0l62.3 25c8.8 3.5 15.8 10.3 19.4 18.8l25.8 60.3c3.6 8.5 3.6 18.1 0 26.6l-25.8 60.3c-3.6 8.5-10.6 15.3-19.4 18.8l-62.3 25c-8.8 3.5-18.7 3.5-27.4 0l-62.3-25c-8.8-3.5-15.8-10.3-19.4-18.8L6.7 141.3c-3.6-8.5-3.6-18.1 0-26.6l25.8-60.3c3.6-8.5 10.6-15.3 19.4-18.8l62.4-25z"/>
  <path fill="#f8f6fa" d="M118.8 33.8c5.9-2.4 12.6-2.4 18.5 0l50.8 21.1c5.9 2.4 10.6 7.1 13.1 13.1l21.1 50.8c2.4 5.9 2.4 12.6 0 18.5l-21.1 50.8c-2.4 5.9-7.1 10.6-13.1 13.1l-50.8 21.1c-5.9 2.4-12.6 2.4-18.5 0L68 201.2c-5.9-2.4-10.6-7.1-13.1-13.1l-21.1-50.8c-2.4-5.9-2.4-12.6 0-18.5L54.9 68c2.4-6 7.1-10.7 13-13.1l50.9-21.1z"/>
  <path fill="#ece6f2" d="M119.8 77.6c5.3-2.2 11.2-2.2 16.5 0l21.6 8.9c5.3 2.2 9.5 6.4 11.6 11.6l8.9 21.6c2.2 5.3 2.2 11.2 0 16.5l-8.9 21.6c-2.2 5.3-6.4 9.5-11.6 11.6l-21.6 8.9c-5.3 2.2-11.2 2.2-16.5 0l-21.6-8.9c-5.3-2.2-9.5-6.4-11.6-11.6l-8.9-21.6c-2.2-5.3-2.2-11.2 0-16.5l8.9-21.6c2.2-5.3 6.4-9.5 11.6-11.6l21.6-8.9z"/>
  <path fill="#f99b1c" d="M19.5 49.7c-.2 2.5-2.2 5.6.2 7.7 2.1 1.8 4.8.5 7.2.6 2.7.2 1.5 2.6 1.2 4.3-.2 1.3-.4 2.7.2 4 1 2 3.6 3.2 5.6 1.8 1.2-.9 0-3-1.2-2.1-2 1.5-2.4-2.1-2.2-3.1.2-1.1.6-2.3.7-3.5 0-1.7-.9-3-2.5-3.5-2-.7-3.7.1-5.7 0-3.6-.1-1.2-4.3-1.1-6.3.2-1.5-2.3-1.5-2.4.1zM34.2 52c-1 2.1-1.9 4.7-.4 6.8.6.8 1.4 1.3 2.3 1.4.6.1 1.5-.2 2 0 .9.4 1.4 1.4 1 2.4-.7 1.4 1.4 2.6 2.1 1.2.8-1.8.5-3.8-1.1-5.1-.9-.7-1.7-.7-2.7-.8-2.9-.3-2.1-2.7-1.2-4.6.7-1.5-1.3-2.7-2-1.3z"/>
  <path fill="#64c4ac" d="M244.3 93.1c-.2-2.9 3.4-4.5 5-1.8 1.3 2.4-1.3 4.4-3.5 3.7-1.5-.5-2.1 1.8-.7 2.4 4.5 1.6 8.8-3.5 6.1-7.6-2.9-4.4-9.7-1.8-9.3 3.3.1 1.5 2.5 1.6 2.4 0z"/>
  <path fill="none" stroke="#7cc3ec" stroke-width="1.2" d="m86.3 209.5-4.7-1.7-4.2 2.6.3-4.6-4-2.9 4.9-1.2 1.7-4.4 2.8 3.9 5.1.2L85 205l1.3 4.5z"/>
  <path fill="#4569b2" d="M113.3 129.3h7.6c1.1 0 2 .9 2 2v18.6c0 1.1-.9 2-2 2h-7.6c-1.1 0-2-.9-2-2v-18.6c0-1.1.9-2 2-2z"/>
  <path fill="#fece1d" d="M143 133.1c0-1.4-1.1-2.4-2.4-2.4h-8l.4-1.1c.6-1.7.9-3.4.9-5.1.1-2.2-1.3-4.5-2.9-4.2-.5.1-.8.5-1 1l-.5 1.7c-.7 2.5-2 4.8-3.6 6.8l-2.9 3.5V149l3.3 1.1c.4.1.8.2 1.3.2h11.6c1.3 0 2.5-1 2.5-2.4s-1-2.5-2.4-2.5h-.1.8c1.4 0 2.4-1.1 2.4-2.4 0-1.4-1.1-2.4-2.4-2.4h.3c1.3 0 2.5-1 2.5-2.4s-1-2.5-2.4-2.5h-.1c1.6-.1 2.7-1.2 2.7-2.6z"/>
  <path fill="#e93a84" d="m110.8 106.8 1.8 3.7 4.1.6-2.9 2.9.7 4-3.6-1.9-3.6 1.9.7-4-2.9-2.9 4.1-.6 1.6-3.7zm17.2-2.9 2 4.1 4.6.7-3.3 3.2.8 4.5-4.1-2.1-4.1 2.1.8-4.5-3.3-3.2 4.6-.7 2-4.1zm17.2 2.9 1.8 3.7 4.1.6-2.9 2.9.7 4-3.6-1.9-3.6 1.9.7-4-2.9-2.9 4.1-.6 1.6-3.7z"/>
  <g fill="#392111">
    <path d="M111.3 143c.5 0 .9-.4.9-.9v-2.7c0-.5-.4-.9-.9-.9s-.9.4-.9.9v2.7c0 .5.4.9.9.9z"/>
    <path d="M140.5 129.8h-6.7c.6-1.7.9-3.5.9-5.3.1-1.8-.7-3.6-1.8-4.5-.6-.5-1.4-.7-2.2-.6-.8.2-1.4.8-1.6 1.6l-.5 1.7c-.7 2.4-1.9 4.6-3.5 6.5l-1.3 1.6c-.2-1.4-1.5-2.5-2.9-2.5h-7.6c-1.6 0-3 1.3-3 3v3.1c0 .5.4.9.9.9s.9-.4.9-.9v-3.1c0-.6.5-1.1 1.1-1.1h7.6c.6 0 1.1.5 1.1 1.1V150c0 .6-.5 1.1-1.1 1.1h-7.6c-.6 0-1.1-.5-1.1-1.1v-3.1c0-.5-.4-.9-.9-.9s-.9.4-.9.9v3.1c0 1.6 1.3 3 3 3h7.6c1.5 0 2.8-1.2 2.9-2.7l2.2.7c.5.2 1 .3 1.6.3h11.6c1.9 0 3.4-1.4 3.5-3.3 0-.8-.2-1.6-.7-2.2 1.6-1 2-3.1 1-4.7-.1-.1-.2-.3-.3-.4 1.5-1.1 1.7-3.2.6-4.7l-.3-.3-.1-.1c1.4-1.3 1.4-3.4.1-4.8-.7-.6-1.6-1-2.5-1zm0 6.8c.8 0 1.5.7 1.5 1.5-.1.8-.8 1.5-1.6 1.5h-.3c-.5 0-.9.4-.9.9s.4.9.9.9c.8 0 1.5.7 1.5 1.5s-.7 1.5-1.5 1.5h-.8c-.5 0-.9.4-.9.9s.4.9.9.9c.8 0 1.5.7 1.5 1.5-.1.8-.8 1.5-1.6 1.5h-11.6c-.3 0-.7-.1-1-.2l-2.7-.9v-14.6l2.7-3.2c1.8-2.1 3.1-4.6 3.8-7.2l.5-1.7c0-.2.1-.3.3-.3.1 0 .3-.1.6.2.8.8 1.2 1.9 1.1 3 0 1.7-.3 3.3-.8 4.9l-.4 1.1c-.2.5.1 1 .6 1.2.1 0 .2.1.3.1h8c.8 0 1.5.7 1.5 1.5s-.7 1.5-1.5 1.5c-.5 0-.9.4-.9.9-.1.7.3 1.1.8 1.1zM114 118.9c.5.2 1 .1 1.3-.4.1-.2.1-.4.1-.6l-.6-3.6 2.6-2.5c.4-.4.4-1 0-1.3-.1-.1-.3-.2-.5-.3l-3.6-.5-1.6-3.2c-.2-.5-.8-.7-1.3-.4-.2.1-.3.2-.4.4l-1.6 3.2-3.6.5c-.5.1-.9.5-.8 1.1 0 .2.1.4.3.5l2.6 2.5-.6 3.6c-.1.5.3 1 .8 1.1.2 0 .4 0 .6-.1l3.2-1.7 3.1 1.7zm-5.6-2.5.4-2.2c.1-.3 0-.6-.3-.8l-1.6-1.5 2.2-.3c.3 0 .6-.2.7-.5l1-2 1 2c.1.3.4.5.7.5l2.2.3-1.6 1.5c-.2.2-.3.5-.3.8l.4 2.2-2-1c-.3-.1-.6-.1-.9 0l-1.9 1zm15.3-4.1-.7 4.1c-.1.5.3 1 .8 1.1.2 0 .4 0 .6-.1l3.6-1.9 3.6 1.9c.5.2 1 .1 1.3-.4.1-.2.1-.4.1-.6l-.7-4.1 2.9-2.9c.4-.4.4-1 0-1.3-.1-.1-.3-.2-.5-.3l-4.1-.6-1.8-3.7c-.2-.5-.8-.7-1.3-.4-.2.1-.3.2-.4.4l-1.8 3.7-4.1.6c-.5.1-.9.5-.8 1.1 0 .2.1.4.3.5l3 2.9zm2.4-3.3c.3 0 .6-.2.7-.5l1.2-2.4 1.2 2.4c.1.3.4.5.7.5l2.7.4-1.9 1.9c-.2.2-.3.5-.3.8l.5 2.7-2.4-1.3c-.3-.1-.6-.1-.9 0l-2.4 1.3.5-2.7c.1-.3 0-.6-.3-.8l-1.9-1.9 2.6-.4zm25.9 1.9c-.1-.3-.4-.6-.8-.6l-3.6-.5-1.6-3.2c-.2-.5-.8-.7-1.3-.4-.2.1-.3.2-.4.4l-1.6 3.2-3.6.5c-.5.1-.9.6-.8 1.1 0 .2.1.4.3.5l2.6 2.5-.6 3.6c-.1.5.3 1 .8 1.1.2 0 .4 0 .6-.1l3.2-1.7 3.2 1.7c.5.2 1 .1 1.3-.4.1-.2.1-.4.1-.6l-.6-3.6 2.6-2.5c.2-.3.3-.7.2-1zm-4.5 2.5c-.2.2-.3.5-.3.8l.4 2.2-1.9-1c-.3-.1-.6-.1-.9 0l-1.9 1 .4-2.2c.1-.3 0-.6-.3-.8l-1.6-1.5 2.2-.3c.3 0 .6-.2.7-.5l1-2 1 2c.1.3.4.5.7.5l2.2.3-1.7 1.5z"/>
  </g>
</svg>