<svg xmlns="http://www.w3.org/2000/svg" xmlns:xlink="http://www.w3.org/1999/xlink" xml:space="preserve" id="Layer_1" x="0" y="0" version="1.1" viewBox="0 0 256 256">
  <style>
    .st6{display:none}.st9{fill:#4569b2}.st10,.st9{display:inline}.st11{fill:#151449}.st14{fill:#392111}.st21{fill:#3a1e08}.st25{fill:#ffcd34}.st29{fill:#e9e9ea}
  </style>
  <path fill="#fbfafc" d="M114.3 10.6c8.8-3.5 18.7-3.5 27.4 0l62.3 25c8.8 3.5 15.8 10.3 19.4 18.8l25.8 60.3c3.6 8.5 3.6 18.1 0 26.6l-25.8 60.3c-3.6 8.5-10.6 15.3-19.4 18.8l-62.3 25c-8.8 3.5-18.7 3.5-27.4 0l-62.3-25c-8.8-3.5-15.8-10.3-19.4-18.8L6.7 141.3c-3.6-8.5-3.6-18.1 0-26.6l25.8-60.3c3.6-8.5 10.6-15.3 19.4-18.8l62.4-25z"/>
  <path fill="#f8f6fa" d="M118.8 33.8c5.9-2.4 12.6-2.4 18.5 0l50.8 21.1c5.9 2.4 10.6 7.1 13.1 13.1l21.1 50.8c2.4 5.9 2.4 12.6 0 18.5l-21.1 50.8c-2.4 5.9-7.1 10.6-13.1 13.1l-50.8 21.1c-5.9 2.4-12.6 2.4-18.5 0L68 201.2c-5.9-2.4-10.6-7.1-13.1-13.1l-21.1-50.8c-2.4-5.9-2.4-12.6 0-18.5L54.9 68c2.4-6 7.1-10.7 13-13.1l50.9-21.1z"/>
  <path fill="#ece6f2" d="M119.8 77.6c5.3-2.2 11.2-2.2 16.5 0l21.6 8.9c5.3 2.2 9.5 6.4 11.6 11.6l8.9 21.6c2.2 5.3 2.2 11.2 0 16.5l-8.9 21.6c-2.2 5.3-6.4 9.5-11.6 11.6l-21.6 8.9c-5.3 2.2-11.2 2.2-16.5 0l-21.6-8.9c-5.3-2.2-9.5-6.4-11.6-11.6l-8.9-21.6c-2.2-5.3-2.2-11.2 0-16.5l8.9-21.6c2.2-5.3 6.4-9.5 11.6-11.6l21.6-8.9z"/>
  <path fill="#f99b1c" d="M19.5 49.7c-.2 2.5-2.2 5.6.2 7.7 2.1 1.8 4.8.5 7.2.6 2.7.2 1.5 2.6 1.2 4.3-.2 1.3-.4 2.7.2 4 1 2 3.6 3.2 5.6 1.8 1.2-.9 0-3-1.2-2.1-2 1.5-2.4-2.1-2.2-3.1.2-1.1.6-2.3.7-3.5 0-1.7-.9-3-2.5-3.5-2-.7-3.7.1-5.7 0-3.6-.1-1.2-4.3-1.1-6.3.2-1.5-2.3-1.5-2.4.1zM34.2 52c-1 2.1-1.9 4.7-.4 6.8.6.8 1.4 1.3 2.3 1.4.6.1 1.5-.2 2 0 .9.4 1.4 1.4 1 2.4-.7 1.4 1.4 2.6 2.1 1.2.8-1.8.5-3.8-1.1-5.1-.9-.7-1.7-.7-2.7-.8-2.9-.3-2.1-2.7-1.2-4.6.7-1.5-1.3-2.7-2-1.3z"/>
  <path fill="#64c4ac" d="M244.3 93.1c-.2-2.9 3.4-4.5 5-1.8 1.3 2.4-1.3 4.4-3.5 3.7-1.5-.5-2.1 1.8-.7 2.4 4.5 1.6 8.8-3.5 6.1-7.6-2.9-4.4-9.7-1.8-9.3 3.3.1 1.5 2.5 1.6 2.4 0z"/>
  <path fill="none" stroke="#7cc3ec" stroke-width="1.2" d="m86.3 209.5-4.7-1.7-4.2 2.6.3-4.6-4-2.9 4.9-1.2 1.7-4.4 2.8 3.9 5.1.2L85 205l1.3 4.5z"/>
  <defs>
    <path id="SVGID_1_" d="M104 104h48v48h-48z"/>
  </defs>
  <clipPath id="SVGID_2_">
    <use xlink:href="#SVGID_1_" overflow="visible"/>
  </clipPath>
  <g clip-path="url(#SVGID_2_)">
    <path fill="#8cbafa" d="m145.2 121.7-21.7 21.7c-1 1-2.6 1-3.6 0l-12.8-12.8c-1-1-1-2.6 0-3.6l21.7-21.7c1-1 2.6-1 3.6 0l12.8 12.8c1 1 1 2.6 0 3.6z"/>
    <path fill="#5692d8" d="m145.2 118.1-1.6-1.6c.9.9.8 2.4-.2 3.4l-21.7 21.7c-1 1-2.5 1.1-3.4.2l1.6 1.6c1 1 2.6 1 3.6 0l21.7-21.7c1-1 1-2.6 0-3.6z"/>
    <path d="m128.5 110.3-2.1 2.1c-.8.8-.8 2.2 0 3 .8.8 2.2.8 3 0l2.1-2.1c.8-.8.8-2.2 0-3-.8-.8-2.2-.8-3 0zM147.2 128.1h-30.7c-1.4 0-2.5 1.1-2.5 2.5v18.1c0 1.4 1.1 2.5 2.5 2.5h30.7c1.4 0 2.5-1.1 2.5-2.5v-18.1c0-1.4-1.1-2.5-2.5-2.5z" class="st25"/>
    <path fill="#e69012" d="M147.2 128.1H145c1.4 0 2.5 1.1 2.5 2.5v18.1c0 1.4-1.1 2.5-2.5 2.5h2.2c1.4 0 2.5-1.1 2.5-2.5v-18.1c0-1.4-1.1-2.5-2.5-2.5z"/>
    <path fill="#575b7a" d="M114 133.8h35.7v4.3H114v-4.3z"/>
    <path fill="#252d4c" d="M147.5 133.8h2.2v4.3h-2.2v-4.3z"/>
    <path d="M141 145.1v2.7c0 .2.2.4.4.4h4.3c.2 0 .4-.2.4-.4v-2.7c0-.2-.2-.4-.4-.4h-4.3c-.3 0-.4.2-.4.4zM128.1 145.1v2.7c0 .2.2.4.4.4h9c.2 0 .4-.2.4-.4v-2.7c0-.2-.2-.4-.4-.4h-9c-.2 0-.4.2-.4.4z" class="st29"/>
    <path d="M107.6 130.1c-.7-.7-.7-1.9 0-2.6l17.2-17.2c.3-.3.3-.7 0-1-.3-.3-.7-.3-1 0l-17.2 17.2c-1.3 1.3-1.3 3.3 0 4.5l4.3 4.3c.1.1.3.2.5.2s.4-.1.5-.2c.3-.3.3-.7 0-1l-4.3-4.2z"/>
    <path d="m121.4 117.9-10.6 10.6c-.3.3-.3.7 0 1 .1.1.3.2.5.2s.4-.1.5-.2l10.6-10.6c.3-.3.3-.7 0-1-.2-.3-.7-.3-1 0zM127.9 116.8c.7 0 1.5-.3 2-.8l2.1-2.1c1.1-1.1 1.1-2.9 0-4s-2.9-1.1-4 0l-2.1 2.1c-.5.5-.8 1.3-.8 2 0 .8.3 1.5.8 2s1.3.8 2 .8zm-1-3.9 2.1-2.1c.6-.6 1.5-.6 2 0 .6.6.6 1.5 0 2l-2.1 2.1c-.6.6-1.5.6-2 0-.3-.3-.4-.6-.4-1-.1-.3.1-.7.4-1z"/>
    <path d="M147.2 127.4h-6.8l5.2-5.2c1.3-1.3 1.3-3.3 0-4.5l-12.8-12.8c-.6-.6-1.4-.9-2.3-.9-.9 0-1.7.3-2.3.9l-2.5 2.5c-.3.3-.3.7 0 1 .3.3.7.3 1 0l2.5-2.5c.3-.3.8-.5 1.3-.5s.9.2 1.3.5l12.8 12.8c.7.7.7 1.9 0 2.6l-6.2 6.2h-17.8l5.1-5.1c.3-.3.3-.7 0-1-.3-.3-.7-.3-1 0l-6.1 6.1h-2.2c-1.8 0-3.2 1.4-3.2 3.2v18.1c0 1.8 1.4 3.2 3.2 3.2h30.7c1.8 0 3.2-1.4 3.2-3.2v-2.6c0-.4-.3-.7-.7-.7-.4 0-.7.3-.7.7v2.6c0 1-.8 1.8-1.8 1.8h-30.7c-1 0-1.8-.8-1.8-1.8v-9.9H149v4.5c0 .4.3.7.7.7.4 0 .7-.3.7-.7v-12.7c.1-1.9-1.4-3.3-3.2-3.3zm-30.7 1.4h30.7c1 0 1.8.8 1.8 1.8v2.5h-34.3v-2.5c0-1 .8-1.8 1.8-1.8zm-1.8 8.6v-2.9H149v2.9h-34.3z"/>
    <path d="M141.3 144c-.6 0-1.1.5-1.1 1.1v2.7c0 .6.5 1.1 1.1 1.1h4.3c.6 0 1.1-.5 1.1-1.1v-2.7c0-.6-.5-1.1-1.1-1.1h-4.3zm4 3.4h-3.6v-2h3.6v2zM128.5 144c-.6 0-1.1.5-1.1 1.1v2.7c0 .6.5 1.1 1.1 1.1h9c.6 0 1.1-.5 1.1-1.1v-2.7c0-.6-.5-1.1-1.1-1.1h-9zm8.7 3.4h-8.4v-2h8.4v2zM120 147.4c-.4 0-.7.3-.7.7 0 .4.3.7.7.7h4.5c.4 0 .7-.3.7-.7 0-.4-.3-.7-.7-.7H120z"/>
  </g>
</svg>