<svg xmlns="http://www.w3.org/2000/svg" xml:space="preserve" id="Layer_1" x="0" y="0" version="1.1" viewBox="0 0 256 256">
  <style>
    .st6{display:none}.st7{display:inline}
  </style>
  <path fill="#fbfafc" d="M114.3 10.6c8.8-3.5 18.7-3.5 27.4 0l62.3 25c8.8 3.5 15.8 10.3 19.4 18.8l25.8 60.3c3.6 8.5 3.6 18.1 0 26.6l-25.8 60.3c-3.6 8.5-10.6 15.3-19.4 18.8l-62.3 25c-8.8 3.5-18.7 3.5-27.4 0l-62.3-25c-8.8-3.5-15.8-10.3-19.4-18.8L6.7 141.3c-3.6-8.5-3.6-18.1 0-26.6l25.8-60.3c3.6-8.5 10.6-15.3 19.4-18.8l62.4-25z"/>
  <path fill="#f8f6fa" d="M118.8 33.8c5.9-2.4 12.6-2.4 18.5 0l50.8 21.1c5.9 2.4 10.6 7.1 13.1 13.1l21.1 50.8c2.4 5.9 2.4 12.6 0 18.5l-21.1 50.8c-2.4 5.9-7.1 10.6-13.1 13.1l-50.8 21.1c-5.9 2.4-12.6 2.4-18.5 0L68 201.2c-5.9-2.4-10.6-7.1-13.1-13.1l-21.1-50.8c-2.4-5.9-2.4-12.6 0-18.5L54.9 68c2.4-6 7.1-10.7 13-13.1l50.9-21.1z"/>
  <path fill="#ece6f2" d="M119.8 77.6c5.3-2.2 11.2-2.2 16.5 0l21.6 8.9c5.3 2.2 9.5 6.4 11.6 11.6l8.9 21.6c2.2 5.3 2.2 11.2 0 16.5l-8.9 21.6c-2.2 5.3-6.4 9.5-11.6 11.6l-21.6 8.9c-5.3 2.2-11.2 2.2-16.5 0l-21.6-8.9c-5.3-2.2-9.5-6.4-11.6-11.6l-8.9-21.6c-2.2-5.3-2.2-11.2 0-16.5l8.9-21.6c2.2-5.3 6.4-9.5 11.6-11.6l21.6-8.9z"/>
  <path fill="#f99b1c" d="M19.5 49.7c-.2 2.5-2.2 5.6.2 7.7 2.1 1.8 4.8.5 7.2.6 2.7.2 1.5 2.6 1.2 4.3-.2 1.3-.4 2.7.2 4 1 2 3.6 3.2 5.6 1.8 1.2-.9 0-3-1.2-2.1-2 1.5-2.4-2.1-2.2-3.1.2-1.1.6-2.3.7-3.5 0-1.7-.9-3-2.5-3.5-2-.7-3.7.1-5.7 0-3.6-.1-1.2-4.3-1.1-6.3.2-1.5-2.3-1.5-2.4.1zM34.2 52c-1 2.1-1.9 4.7-.4 6.8.6.8 1.4 1.3 2.3 1.4.6.1 1.5-.2 2 0 .9.4 1.4 1.4 1 2.4-.7 1.4 1.4 2.6 2.1 1.2.8-1.8.5-3.8-1.1-5.1-.9-.7-1.7-.7-2.7-.8-2.9-.3-2.1-2.7-1.2-4.6.7-1.5-1.3-2.7-2-1.3z"/>
  <path fill="#64c4ac" d="M244.3 93.1c-.2-2.9 3.4-4.5 5-1.8 1.3 2.4-1.3 4.4-3.5 3.7-1.5-.5-2.1 1.8-.7 2.4 4.5 1.6 8.8-3.5 6.1-7.6-2.9-4.4-9.7-1.8-9.3 3.3.1 1.5 2.5 1.6 2.4 0z"/>
  <path fill="none" stroke="#7cc3ec" stroke-width="1.2" d="m86.3 209.5-4.7-1.7-4.2 2.6.3-4.6-4-2.9 4.9-1.2 1.7-4.4 2.8 3.9 5.1.2L85 205l1.3 4.5z"/>
  <path fill="#a4de5a" d="M139.1 124.6c0 5.5-4.2 10.2-10.1 12.3-2.3.8-4.7 1.2-7.1 1.2-1.3 0-2.6-.1-3.8-.4-.5-.1-1 .2-1.3.6 0 0-2 3.2-6.7 3.2-1 0-2.1-.1-3.1-.4 0 0 3.3-1.6 3-5.3v-1c0-.4-.2-.8-.5-1-2.9-2.4-4.7-5.7-4.7-9.3 0-7.5 7.7-13.5 17.2-13.5s17.1 6.2 17.1 13.6z"/>
  <path fill="#62b2ea" d="M149.6 144.7c-.7.2-1.4.3-2.1.3-3.2 0-4.5-2.1-4.5-2.1-.2-.3-.5-.5-.9-.4-.9.1-1.7.2-2.6.2-4.8 0-9-2.4-10.6-5.7 6-2.1 10.1-6.8 10.1-12.3h.5c6.3 0 11.4 4 11.4 9 0 2.4-1.2 4.6-3.1 6.2-.2.2-.3.4-.3.7v.6c-.1 2.4 2.1 3.5 2.1 3.5z"/>
  <path d="M111.2 114.9c.1 0 .3 0 .4-.1.8-.5 1.6-.9 2.5-1.3.4-.2.6-.6.4-1-.2-.4-.6-.6-1-.4-.9.4-1.9.9-2.8 1.4-.4.2-.5.7-.2 1.1.2.2.4.3.7.3zm12.4 9.7c0-.9-.7-1.6-1.6-1.6s-1.6.7-1.6 1.6c0 .9.7 1.6 1.6 1.6.9 0 1.6-.7 1.6-1.6zm-4.5 0c0-.9-.7-1.6-1.6-1.6s-1.6.7-1.6 1.6c0 .9.7 1.6 1.6 1.6s1.6-.7 1.6-1.6zm-4.6 0c0-.9-.7-1.6-1.6-1.6s-1.6.7-1.6 1.6c0 .9.7 1.6 1.6 1.6s1.6-.7 1.6-1.6zm13.6 0c0-.9-.7-1.6-1.6-1.6-.9 0-1.6.7-1.6 1.6 0 .9.7 1.6 1.6 1.6.9 0 1.6-.7 1.6-1.6zm4.5 0c0-.9-.7-1.6-1.6-1.6-.9 0-1.6.7-1.6 1.6 0 .9.7 1.6 1.6 1.6.9 0 1.6-.7 1.6-1.6z"/>
  <path d="M109.2 116.6c.3-.3.3-.8 0-1.1-.3-.3-.8-.3-1.1 0-2.7 2.6-4.2 5.8-4.2 9.1 0 3.7 1.8 7.2 5 9.9.1.1.2.2.2.4v1c.2 3.1-2.5 4.5-2.6 4.5-.4.2-.5.7-.4 1 .1.2.3.4.5.4 1.1.3 2.2.4 3.3.5 5.2 0 7.3-3.4 7.4-3.6s.3-.3.5-.2c1.3.2 2.6.4 4 .4 2.3 0 4.5-.3 6.7-1 2.1 3.4 6.3 5.6 11.1 5.6.9 0 1.8-.1 2.7-.2h.1c0 .1 1.6 2.5 5.2 2.5.8 0 1.5-.1 2.3-.3.4-.1.7-.5.6-.9 0-.2-.2-.4-.4-.5-1-.5-1.6-1.6-1.6-2.8v-.7c1.3-1 2.2-2.4 2.8-3.8.2-.4 0-.9-.5-1-.4-.2-.9 0-1 .5-.5 1.2-1.3 2.4-2.4 3.2-.4.3-.6.8-.6 1.3v.6c-.1 1.1.3 2.2 1 3.1h-.2c-2.7 0-3.8-1.7-3.8-1.7-.4-.6-1-.9-1.7-.8-.8.1-1.6.2-2.4.2-4 0-7.7-1.8-9.5-4.5 5.7-2.3 9.4-6.9 9.7-11.9 5.6.1 10.1 3.5 10.4 7.8 0 .4.4.7.8.7.5 0 .8-.4.7-.8-.3-5.2-5.6-9.2-12-9.3-.6-7.6-8.4-13.6-18-13.6-1.8 0-3.6.2-5.3.6-.4.1-.7.5-.6.9.1.4.5.7.9.6 1.6-.4 3.3-.6 5-.6 9 0 16.4 5.7 16.4 12.8 0 5-3.8 9.5-9.6 11.6-2.2.8-4.5 1.1-6.8 1.1-1.2 0-2.5-.1-3.7-.3-.9-.1-1.7.2-2.1 1 0 0-1.8 2.8-6.1 2.8-.4 0-.8 0-1.2-.1 1.4-1.3 2-3.1 1.9-4.9v-.9c0-.6-.3-1.2-.8-1.6-2.8-2.4-4.4-5.4-4.4-8.7.2-3.2 1.4-6 3.8-8.3z"/>
  <path d="M140.7 133.6c0-.9-.7-1.6-1.6-1.6-.9 0-1.6.7-1.6 1.6 0 .9.7 1.6 1.6 1.6.9 0 1.6-.7 1.6-1.6zm4.6 0c0-.9-.7-1.6-1.6-1.6-.9 0-1.6.7-1.6 1.6 0 .9.7 1.6 1.6 1.6.8 0 1.6-.7 1.6-1.6z"/>
</svg>