<?xml version="1.0" encoding="utf-8"?>
<!-- Generator: Adobe Illustrator 25.2.1, SVG Export Plug-In . SVG Version: 6.00 Build 0)  -->
<svg version="1.1" id="Layer_1" xmlns="http://www.w3.org/2000/svg" xmlns:xlink="http://www.w3.org/1999/xlink" x="0px" y="0px"
	 viewBox="0 0 256 256" style="enable-background:new 0 0 256 256;" xml:space="preserve">
<style type="text/css">
	.st0{fill:#FBFAFC;}
	.st1{fill:#F8F6FA;}
	.st2{fill:#ECE6F2;}
	.st3{fill:#F99B1C;}
	.st4{fill:#64C4AC;}
	.st5{fill:none;stroke:#7CC3EC;stroke-width:1.2;}
	.st6{display:none;}
	.st7{display:inline;}
	.st8{display:inline;clip-path:url(#SVGID_2_);}
	.st9{fill:#8CBAFA;}
	.st10{fill:#5692D8;}
	.st11{fill:#FFCD34;}
	.st12{fill:#E69012;}
	.st13{fill:#575B7A;}
	.st14{fill:#252D4C;}
	.st15{fill:#E9E9EA;}
	.st16{display:inline;fill:#FFCA3A;}
	.st17{display:inline;fill:#8AC926;}
	.st18{display:inline;fill:#001363;}
	.st19{display:inline;fill:#4D91D8;}
	.st20{display:inline;fill:#44CE88;}
	.st21{display:inline;fill:#F7DB4D;}
	.st22{display:inline;fill:#76A9E4;}
	.st23{display:inline;fill:#A4DE5A;}
	.st24{display:inline;fill:#62B2EA;}
	.st25{display:inline;fill:#E97389;}
	.st26{display:inline;fill:#FFD88E;}
	.st27{display:inline;fill:#8FCC94;}
	.st28{fill:#005086;}
	.st29{fill:#F7D6BF;}
	.st30{fill:#80BFBE;}
	.st31{fill:#172956;}
</style>
<path class="st0" d="M114.3,10.6c8.8-3.5,18.7-3.5,27.4,0l62.3,25c8.8,3.5,15.8,10.3,19.4,18.8l25.8,60.3c3.6,8.5,3.6,18.1,0,26.6
	l-25.8,60.3c-3.6,8.5-10.6,15.3-19.4,18.8l-62.3,25c-8.8,3.5-18.7,3.5-27.4,0l-62.3-25c-8.8-3.5-15.8-10.3-19.4-18.8L6.7,141.3
	c-3.6-8.5-3.6-18.1,0-26.6l25.8-60.3c3.6-8.5,10.6-15.3,19.4-18.8C51.9,35.6,114.3,10.6,114.3,10.6z"/>
<path class="st1" d="M118.8,33.8c5.9-2.4,12.6-2.4,18.5,0l50.8,21.1c5.9,2.4,10.6,7.1,13.1,13.1l21.1,50.8c2.4,5.9,2.4,12.6,0,18.5
	l-21.1,50.8c-2.4,5.9-7.1,10.6-13.1,13.1l-50.8,21.1c-5.9,2.4-12.6,2.4-18.5,0L68,201.2c-5.9-2.4-10.6-7.1-13.1-13.1l-21.1-50.8
	c-2.4-5.9-2.4-12.6,0-18.5L54.9,68c2.4-6,7.1-10.7,13-13.1C67.9,54.9,118.8,33.8,118.8,33.8z"/>
<path class="st2" d="M119.8,77.6c5.3-2.2,11.2-2.2,16.5,0l21.6,8.9c5.3,2.2,9.5,6.4,11.6,11.6l8.9,21.6c2.2,5.3,2.2,11.2,0,16.5
	l-8.9,21.6c-2.2,5.3-6.4,9.5-11.6,11.6l-21.6,8.9c-5.3,2.2-11.2,2.2-16.5,0l-21.6-8.9c-5.3-2.2-9.5-6.4-11.6-11.6l-8.9-21.6
	c-2.2-5.3-2.2-11.2,0-16.5l8.9-21.6c2.2-5.3,6.4-9.5,11.6-11.6L119.8,77.6z"/>
<path class="st3" d="M19.5,49.7c-0.2,2.5-2.2,5.6,0.2,7.7c2.1,1.8,4.8,0.5,7.2,0.6c2.7,0.2,1.5,2.6,1.2,4.3c-0.2,1.3-0.4,2.7,0.2,4
	c1,2,3.6,3.2,5.6,1.8c1.2-0.9,0-3-1.2-2.1c-2,1.5-2.4-2.1-2.2-3.1c0.2-1.1,0.6-2.3,0.7-3.5c0-1.7-0.9-3-2.5-3.5
	c-2-0.7-3.7,0.1-5.7,0c-3.6-0.1-1.2-4.3-1.1-6.3C22.1,48.1,19.6,48.1,19.5,49.7z M34.2,52c-1,2.1-1.9,4.7-0.4,6.8
	c0.6,0.8,1.4,1.3,2.3,1.4c0.6,0.1,1.5-0.2,2,0c0.9,0.4,1.4,1.4,1,2.4c-0.7,1.4,1.4,2.6,2.1,1.2c0.8-1.8,0.5-3.8-1.1-5.1
	c-0.9-0.7-1.7-0.7-2.7-0.8c-2.9-0.3-2.1-2.7-1.2-4.6C36.9,51.8,34.9,50.6,34.2,52z"/>
<path class="st4" d="M244.3,93.1c-0.2-2.9,3.4-4.5,5-1.8c1.3,2.4-1.3,4.4-3.5,3.7c-1.5-0.5-2.1,1.8-0.7,2.4c4.5,1.6,8.8-3.5,6.1-7.6
	c-2.9-4.4-9.7-1.8-9.3,3.3C242,94.6,244.4,94.7,244.3,93.1z"/>
<path class="st5" d="M86.3,209.5l-4.7-1.7l-4.2,2.6l0.3-4.6l-4-2.9l4.9-1.2l1.7-4.4l2.8,3.9l5.1,0.2L85,205L86.3,209.5z"/>
<g class="st6">
	<defs>
		<rect id="SVGID_1_" x="104" y="104" width="48" height="48"/>
	</defs>
	<clipPath id="SVGID_2_" class="st7">
		<use xlink:href="#SVGID_1_"  style="overflow:visible;"/>
	</clipPath>
	<g class="st8">
		<path class="st9" d="M145.2,121.7l-21.7,21.7c-1,1-2.6,1-3.6,0l-12.8-12.8c-1-1-1-2.6,0-3.6l21.7-21.7c1-1,2.6-1,3.6,0l12.8,12.8
			C146.2,119.1,146.2,120.7,145.2,121.7L145.2,121.7z"/>
		<path class="st10" d="M145.2,118.1l-1.6-1.6c0.9,0.9,0.8,2.4-0.2,3.4l-21.7,21.7c-1,1-2.5,1.1-3.4,0.2l1.6,1.6c1,1,2.6,1,3.6,0
			l21.7-21.7C146.2,120.7,146.2,119.1,145.2,118.1L145.2,118.1z"/>
		<path class="st11" d="M128.5,110.3l-2.1,2.1c-0.8,0.8-0.8,2.2,0,3s2.2,0.8,3,0l2.1-2.1c0.8-0.8,0.8-2.2,0-3
			S129.3,109.5,128.5,110.3z M147.2,128.1h-30.7c-1.4,0-2.5,1.1-2.5,2.5v18.1c0,1.4,1.1,2.5,2.5,2.5h30.7c1.4,0,2.5-1.1,2.5-2.5
			v-18.1C149.7,129.2,148.6,128.1,147.2,128.1z"/>
		<path class="st12" d="M147.2,128.1H145c1.4,0,2.5,1.1,2.5,2.5v18.1c0,1.4-1.1,2.5-2.5,2.5h2.2c1.4,0,2.5-1.1,2.5-2.5v-18.1
			C149.7,129.2,148.6,128.1,147.2,128.1z"/>
		<path class="st13" d="M114,133.8h35.7v4.3H114V133.8z"/>
		<path class="st14" d="M147.5,133.8h2.2v4.3h-2.2V133.8z"/>
		<path class="st15" d="M141,145.1v2.7c0,0.2,0.2,0.4,0.4,0.4h4.3c0.2,0,0.4-0.2,0.4-0.4v-2.7c0-0.2-0.2-0.4-0.4-0.4h-4.3
			C141.1,144.7,141,144.9,141,145.1z M128.1,145.1v2.7c0,0.2,0.2,0.4,0.4,0.4h9c0.2,0,0.4-0.2,0.4-0.4v-2.7c0-0.2-0.2-0.4-0.4-0.4
			h-9C128.3,144.7,128.1,144.9,128.1,145.1z"/>
		<path d="M107.6,130.1c-0.7-0.7-0.7-1.9,0-2.6l17.2-17.2c0.3-0.3,0.3-0.7,0-1s-0.7-0.3-1,0l-17.2,17.2c-1.3,1.3-1.3,3.3,0,4.5
			l4.3,4.3c0.1,0.1,0.3,0.2,0.5,0.2s0.4-0.1,0.5-0.2c0.3-0.3,0.3-0.7,0-1C111.9,134.3,107.6,130.1,107.6,130.1z"/>
		<path d="M121.4,117.9l-10.6,10.6c-0.3,0.3-0.3,0.7,0,1c0.1,0.1,0.3,0.2,0.5,0.2s0.4-0.1,0.5-0.2l10.6-10.6c0.3-0.3,0.3-0.7,0-1
			C122.2,117.6,121.7,117.6,121.4,117.9z M127.9,116.8c0.7,0,1.5-0.3,2-0.8l2.1-2.1c1.1-1.1,1.1-2.9,0-4s-2.9-1.1-4,0l-2.1,2.1
			c-0.5,0.5-0.8,1.3-0.8,2c0,0.8,0.3,1.5,0.8,2S127.2,116.8,127.9,116.8z M126.9,112.9l2.1-2.1c0.6-0.6,1.5-0.6,2,0
			c0.6,0.6,0.6,1.5,0,2l-2.1,2.1c-0.6,0.6-1.5,0.6-2,0c-0.3-0.3-0.4-0.6-0.4-1C126.4,113.6,126.6,113.2,126.9,112.9z"/>
		<path d="M147.2,127.4h-6.8l5.2-5.2c1.3-1.3,1.3-3.3,0-4.5l-12.8-12.8c-0.6-0.6-1.4-0.9-2.3-0.9c-0.9,0-1.7,0.3-2.3,0.9l-2.5,2.5
			c-0.3,0.3-0.3,0.7,0,1s0.7,0.3,1,0l2.5-2.5c0.3-0.3,0.8-0.5,1.3-0.5s0.9,0.2,1.3,0.5l12.8,12.8c0.7,0.7,0.7,1.9,0,2.6l-6.2,6.2
			h-17.8l5.1-5.1c0.3-0.3,0.3-0.7,0-1s-0.7-0.3-1,0l-6.1,6.1h-2.2c-1.8,0-3.2,1.4-3.2,3.2v18.1c0,1.8,1.4,3.2,3.2,3.2h30.7
			c1.8,0,3.2-1.4,3.2-3.2v-2.6c0-0.4-0.3-0.7-0.7-0.7s-0.7,0.3-0.7,0.7v2.6c0,1-0.8,1.8-1.8,1.8h-30.7c-1,0-1.8-0.8-1.8-1.8v-9.9
			H149v4.5c0,0.4,0.3,0.7,0.7,0.7s0.7-0.3,0.7-0.7v-12.7C150.5,128.8,149,127.4,147.2,127.4z M116.5,128.8h30.7c1,0,1.8,0.8,1.8,1.8
			v2.5h-34.3v-2.5C114.7,129.6,115.5,128.8,116.5,128.8z M114.7,137.4v-2.9H149v2.9H114.7z"/>
		<path d="M141.3,144c-0.6,0-1.1,0.5-1.1,1.1v2.7c0,0.6,0.5,1.1,1.1,1.1h4.3c0.6,0,1.1-0.5,1.1-1.1v-2.7c0-0.6-0.5-1.1-1.1-1.1
			H141.3z M145.3,147.4h-3.6v-2h3.6V147.4z M128.5,144c-0.6,0-1.1,0.5-1.1,1.1v2.7c0,0.6,0.5,1.1,1.1,1.1h9c0.6,0,1.1-0.5,1.1-1.1
			v-2.7c0-0.6-0.5-1.1-1.1-1.1H128.5z M137.2,147.4h-8.4v-2h8.4V147.4z M120,147.4c-0.4,0-0.7,0.3-0.7,0.7s0.3,0.7,0.7,0.7h4.5
			c0.4,0,0.7-0.3,0.7-0.7s-0.3-0.7-0.7-0.7H120z"/>
	</g>
</g>
<g class="st6">
	<path class="st16" d="M146.4,110.4l-0.3,6.4l-1,20.2c-1.2-0.6-2.5-0.8-3.9-0.8c-5.4,0-9.7,4.4-9.7,9.7c0,1.1,0.2,2.2,0.6,3.2h-18.3
		c-3.8,0-7-3-7.1-6.8l-1.2-25.5l-0.3-6.4L146.4,110.4z"/>
	<path class="st17" d="M151,145.9c0,5.4-4.4,9.7-9.7,9.7c-4.1,0-7.8-2.6-9.2-6.5c-0.4-1-0.6-2.1-0.6-3.2c0-5.4,4.4-9.7,9.7-9.7
		c1.4,0,2.6,0.2,3.9,0.8C148.7,138.5,151,142,151,145.9L151,145.9z"/>
	<path class="st18" d="M147,145.9c0,0.6-0.5,1.1-1.1,1.1h-3.5v3.5c0,0.6-0.5,1.1-1.1,1.1c-0.6,0-1.1-0.5-1.1-1.1V147h-3.5
		c-0.6,0-1.1-0.5-1.1-1.1s0.5-1.1,1.1-1.1h3.5v-3.5c0-0.6,0.5-1.1,1.1-1.1c0.6,0,1.1,0.5,1.1,1.1v3.5h3.5
		C146.5,144.8,147,145.3,147,145.9z M105.7,123.6c0.6,0,1.1-0.6,1-1.1l-0.1-0.7c0-0.6-0.6-1-1.1-1c-0.6,0-1,0.6-1,1.1l0.1,0.7
		C104.6,123.1,105,123.6,105.7,123.6z M152,145.9c0,6-4.9,10.8-10.8,10.8c-4.3,0-8.2-2.6-9.9-6.5h-17.6c-4.4,0-8-3.4-8.2-7.8
		l-0.7-13.5c0-0.6,0.4-1.1,1-1.1s1.1,0.4,1.1,1l0.7,13.5c0.1,3.2,2.8,5.7,6,5.7h17c-1.2-5.8,2.6-11.5,8.4-12.7
		c1.7-0.4,3.4-0.2,5,0.2l1.2-24.1h-8.5v3.6c0,0.6-0.5,1.1-1.1,1.1s-1.1-0.5-1.1-1.1v-3.6h-17.8v3.6c0,0.6-0.5,1.1-1.1,1.1
		s-1.1-0.5-1.1-1.1v-3.6h-8.4l0.2,3.6c0,0.6-0.4,1.1-1,1.1c-0.6,0-1.1-0.4-1.1-1l-0.2-4.7c0-0.6,0.4-1.1,1-1.1h9.7v-2.6
		c0-4,3.3-7.3,7.3-7.3h7.6c4,0,7.3,3.3,7.3,7.3v2.6h9.6c0.6,0,1.1,0.5,1.1,1v0.1l-1.2,25.9C149.8,138.2,152,141.8,152,145.9
		L152,145.9z M134.6,109.3v-2.6c0-2.8-2.3-5.2-5.2-5.2h-7.6c-2.8,0-5.2,2.3-5.2,5.2v2.6H134.6z M149.8,145.9c0-4.8-3.9-8.6-8.6-8.6
		c-4.7,0-8.6,3.9-8.6,8.6c0,5.8,5.8,10.1,11.4,8.1C147.5,152.9,149.8,149.5,149.8,145.9z"/>
</g>
<g class="st6">
	<path class="st19" d="M124.6,114.4h7.3l8.7-17.5h-7.3L124.6,114.4z"/>
	<path class="st20" d="M113.5,109.6h29.1c1.5,0,2.7,1.2,2.7,2.7v44c0,1.5-1.2,2.7-2.7,2.7h-29.1c-1.5,0-2.7-1.2-2.7-2.7v-44
		C110.7,110.8,112,109.6,113.5,109.6z"/>
	<path class="st21" d="M129.5,121l1.3,2c0.2,0.4,0.6,0.7,1.1,0.8l2.3,0.6c1,0.2,1.6,1.2,1.3,2.2c-0.1,0.3-0.2,0.5-0.4,0.7l-1.5,1.8
		c-0.3,0.4-0.5,0.8-0.4,1.3l0.2,2.4c0.1,1-0.7,1.9-1.7,1.9c-0.3,0-0.5,0-0.8-0.1l-2.2-0.9c-0.4-0.2-0.9-0.2-1.4,0l-2.2,0.9
		c-0.9,0.4-2-0.1-2.4-1c-0.1-0.3-0.1-0.5-0.1-0.8l0.2-2.4c0-0.5-0.1-0.9-0.4-1.3l-1.5-1.8c-0.6-0.8-0.5-1.9,0.2-2.6
		c0.2-0.2,0.5-0.3,0.7-0.4l2.3-0.6c0.5-0.1,0.9-0.4,1.1-0.8l1.3-2c0.5-0.9,1.7-1.1,2.5-0.6C129.2,120.5,129.4,120.7,129.5,121
		L129.5,121z"/>
	<path class="st22" d="M131.9,114.4h-7.3L116,97h7.3L131.9,114.4z"/>
	<path class="st7" d="M110.7,145.4c0.5,0,1-0.4,1-1v-2.7c0-0.5-0.4-1-1-1c-0.5,0-1,0.4-1,1v2.7C109.8,145,110.2,145.4,110.7,145.4z"
		/>
	<path class="st7" d="M142.5,108.6h-6.7l5.6-11.2c0.2-0.5,0-1-0.4-1.3c-0.1-0.1-0.3-0.1-0.4-0.1h-7.3c-0.4,0-0.7,0.2-0.9,0.5
		l-4.2,8.4l-4.2-8.4c-0.2-0.3-0.5-0.5-0.9-0.5H116c-0.5,0-1,0.4-1,1c0,0.1,0,0.3,0.1,0.4l5.6,11.2h-7.2c-2,0-3.7,1.7-3.7,3.7v6.9
		c0,0.5,0.4,1,1,1c0.5,0,1-0.4,1-1v-6.9c0-1,0.8-1.8,1.8-1.8h8.2l1.5,2.9h-1.3c-0.5,0-1,0.4-1,1s0.4,1,1,1h12.5c0.5,0,1-0.4,1-1
		s-0.4-1-1-1h-1.7l-1.5-2.9h11.5c1,0,1.8,0.8,1.8,1.8v44c0,1-0.8,1.8-1.8,1.8h-29.1c-1,0-1.8-0.8-1.8-1.8v-6.9c0-0.5-0.4-1-1-1
		s-1,0.4-1,1v6.9c0,2,1.7,3.7,3.7,3.7h29.1c2,0,3.7-1.7,3.7-3.7v-44C146.2,110.3,144.6,108.6,142.5,108.6z M122.6,97.9l7.7,15.5
		h-5.1c-1.9-3.8-5.8-11.7-7.7-15.5H122.6z M129.3,107.1l4.6-9.2h5.1l-5.3,10.7h-3.6L129.3,107.1z"/>
	<path class="st7" d="M110.7,137.7c0.5,0,1-0.4,1-1c0,0,0,0,0,0v-12.6c0-0.5-0.4-1-1-1c-0.5,0-1,0.4-1,1v12.6
		C109.8,137.3,110.2,137.7,110.7,137.7C110.7,137.7,110.7,137.7,110.7,137.7z M128,119.2c-1,0-1.8,0.5-2.4,1.3l-1.3,2
		c-0.1,0.2-0.3,0.3-0.5,0.4l-2.3,0.6c-1.5,0.4-2.4,1.9-2,3.4c0.1,0.4,0.3,0.8,0.6,1.1l1.5,1.8c0.1,0.2,0.2,0.4,0.2,0.6l-0.2,2.4
		c-0.1,1.5,1,2.9,2.6,3c0.4,0,0.8,0,1.2-0.2l2.2-0.9c0.2-0.1,0.4-0.1,0.6,0l2.2,0.9c1.4,0.6,3-0.1,3.6-1.5c0.2-0.4,0.2-0.8,0.2-1.2
		l-0.2-2.4c0-0.2,0.1-0.4,0.2-0.6l1.5-1.8c1-1.2,0.8-2.9-0.3-3.9c-0.3-0.3-0.7-0.5-1.1-0.6l-2.3-0.6c-0.2-0.1-0.4-0.2-0.5-0.4
		l-1.3-2C129.8,119.6,128.9,119.2,128,119.2L128,119.2z M131.6,124.7l2.3,0.6c0.5,0.1,0.7,0.6,0.6,1c0,0.1-0.1,0.2-0.2,0.3l-1.5,1.8
		c-0.5,0.6-0.7,1.3-0.6,2l0.2,2.4c0,0.5-0.3,0.9-0.8,0.9c-0.1,0-0.3,0-0.4-0.1l-2.2-0.9c-0.7-0.3-1.4-0.3-2.1,0l-2.2,0.9
		c-0.4,0.2-0.9,0-1.1-0.5c0-0.1-0.1-0.3-0.1-0.4l0.2-2.4c0.1-0.7-0.2-1.4-0.6-2l-1.5-1.8c-0.3-0.4-0.3-0.9,0.1-1.2
		c0.1-0.1,0.2-0.1,0.3-0.2l2.3-0.6c0.7-0.2,1.3-0.6,1.7-1.2l1.3-2c0.3-0.4,0.8-0.5,1.2-0.3c0.1,0.1,0.2,0.2,0.3,0.3l1.3,2
		C130.3,124.1,130.9,124.5,131.6,124.7L131.6,124.7z M117.5,141.4c-0.5,0.2-0.8,0.7-0.6,1.2c0,0,0,0,0,0l3.6,9.8
		c0.1,0.4,0.5,0.6,0.9,0.6h0c0.4,0,0.8-0.2,0.9-0.6l3.8-9.8c0.2-0.5,0-1-0.5-1.2c-0.5-0.2-1,0-1.2,0.5c0,0,0,0,0,0l-2.9,7.5
		l-2.7-7.5C118.6,141.5,118,141.2,117.5,141.4L117.5,141.4z M127.8,142.3v9.8c0,0.5,0.4,1,1,1c0.5,0,1-0.4,1-1v-9.8c0-0.5-0.4-1-1-1
		C128.2,141.3,127.8,141.8,127.8,142.3L127.8,142.3z M132.9,141.3c-0.5,0-1,0.4-1,1c0,0,0,0,0,0v9.8c0,0.5,0.4,1,1,1
		c0.5,0,1-0.4,1-1v-3.4l1,0h0c2.3,0,4.3-1.6,4.3-3.7c0-2-1.9-3.7-4.3-3.7H132.9z M137.2,145c0,1.1-1.2,1.8-2.4,1.8h0l-1,0v-3.6h1
		C136.1,143.2,137.2,144.1,137.2,145z"/>
</g>
<g class="st6">
	<path class="st23" d="M139.1,124.6c0,5.5-4.2,10.2-10.1,12.3c-2.3,0.8-4.7,1.2-7.1,1.2c-1.3,0-2.6-0.1-3.8-0.4
		c-0.5-0.1-1,0.2-1.3,0.6c0,0-2,3.2-6.7,3.2c-1,0-2.1-0.1-3.1-0.4c0,0,3.3-1.6,3-5.3c0-0.4,0-0.7,0-1c0-0.4-0.2-0.8-0.5-1
		c-2.9-2.4-4.7-5.7-4.7-9.3c0-7.5,7.7-13.5,17.2-13.5S139.1,117.2,139.1,124.6z"/>
	<path class="st24" d="M149.6,144.7c-0.7,0.2-1.4,0.3-2.1,0.3c-3.2,0-4.5-2.1-4.5-2.1c-0.2-0.3-0.5-0.5-0.9-0.4
		c-0.9,0.1-1.7,0.2-2.6,0.2c-4.8,0-9-2.4-10.6-5.7c6-2.1,10.1-6.8,10.1-12.3h0.5c6.3,0,11.4,4,11.4,9c0,2.4-1.2,4.6-3.1,6.2
		c-0.2,0.2-0.3,0.4-0.3,0.7c0,0.2,0,0.4,0,0.6C147.4,143.6,149.6,144.7,149.6,144.7z"/>
	<path class="st7" d="M111.2,114.9c0.1,0,0.3,0,0.4-0.1c0.8-0.5,1.6-0.9,2.5-1.3c0.4-0.2,0.6-0.6,0.4-1c-0.2-0.4-0.6-0.6-1-0.4
		c-0.9,0.4-1.9,0.9-2.8,1.4c-0.4,0.2-0.5,0.7-0.2,1.1C110.7,114.8,110.9,114.9,111.2,114.9L111.2,114.9z M123.6,124.6
		c0-0.9-0.7-1.6-1.6-1.6s-1.6,0.7-1.6,1.6c0,0.9,0.7,1.6,1.6,1.6C122.9,126.2,123.6,125.5,123.6,124.6z M119.1,124.6
		c0-0.9-0.7-1.6-1.6-1.6s-1.6,0.7-1.6,1.6c0,0.9,0.7,1.6,1.6,1.6S119.1,125.5,119.1,124.6z M114.5,124.6c0-0.9-0.7-1.6-1.6-1.6
		s-1.6,0.7-1.6,1.6c0,0.9,0.7,1.6,1.6,1.6S114.5,125.5,114.5,124.6z M128.1,124.6c0-0.9-0.7-1.6-1.6-1.6c-0.9,0-1.6,0.7-1.6,1.6
		c0,0.9,0.7,1.6,1.6,1.6C127.4,126.2,128.1,125.5,128.1,124.6z M132.6,124.6c0-0.9-0.7-1.6-1.6-1.6c-0.9,0-1.6,0.7-1.6,1.6
		c0,0.9,0.7,1.6,1.6,1.6C131.9,126.2,132.6,125.5,132.6,124.6z"/>
	<path class="st7" d="M109.2,116.6c0.3-0.3,0.3-0.8,0-1.1c-0.3-0.3-0.8-0.3-1.1,0c-2.7,2.6-4.2,5.8-4.2,9.1c0,3.7,1.8,7.2,5,9.9
		c0.1,0.1,0.2,0.2,0.2,0.4c0,0.3,0,0.7,0,1c0.2,3.1-2.5,4.5-2.6,4.5c-0.4,0.2-0.5,0.7-0.4,1c0.1,0.2,0.3,0.4,0.5,0.4
		c1.1,0.3,2.2,0.4,3.3,0.5c5.2,0,7.3-3.4,7.4-3.6s0.3-0.3,0.5-0.2c1.3,0.2,2.6,0.4,4,0.4c2.3,0,4.5-0.3,6.7-1
		c2.1,3.4,6.3,5.6,11.1,5.6c0.9,0,1.8-0.1,2.7-0.2c0,0,0,0,0.1,0c0,0.1,1.6,2.5,5.2,2.5c0.8,0,1.5-0.1,2.3-0.3
		c0.4-0.1,0.7-0.5,0.6-0.9c0-0.2-0.2-0.4-0.4-0.5c-1-0.5-1.6-1.6-1.6-2.8c0-0.3,0-0.5,0-0.7c0,0,0,0,0,0c1.3-1,2.2-2.4,2.8-3.8
		c0.2-0.4,0-0.9-0.5-1c-0.4-0.2-0.9,0-1,0.5c-0.5,1.2-1.3,2.4-2.4,3.2c-0.4,0.3-0.6,0.8-0.6,1.3v0.6c-0.1,1.1,0.3,2.2,1,3.1h-0.2
		c-2.7,0-3.8-1.7-3.8-1.7c-0.4-0.6-1-0.9-1.7-0.8c-0.8,0.1-1.6,0.2-2.4,0.2c-4,0-7.7-1.8-9.5-4.5c5.7-2.3,9.4-6.9,9.7-11.9
		c5.6,0.1,10.1,3.5,10.4,7.8c0,0.4,0.4,0.7,0.8,0.7h0c0.5,0,0.8-0.4,0.7-0.8c-0.3-5.2-5.6-9.2-12-9.3c-0.6-7.6-8.4-13.6-18-13.6
		c-1.8,0-3.6,0.2-5.3,0.6c-0.4,0.1-0.7,0.5-0.6,0.9c0.1,0.4,0.5,0.7,0.9,0.6c1.6-0.4,3.3-0.6,5-0.6c9,0,16.4,5.7,16.4,12.8
		c0,5-3.8,9.5-9.6,11.6c-2.2,0.8-4.5,1.1-6.8,1.1c-1.2,0-2.5-0.1-3.7-0.3c-0.9-0.1-1.7,0.2-2.1,1c0,0-1.8,2.8-6.1,2.8
		c-0.4,0-0.8,0-1.2-0.1c1.4-1.3,2-3.1,1.9-4.9c0-0.3,0-0.6,0-0.9c0-0.6-0.3-1.2-0.8-1.6c-2.8-2.4-4.4-5.4-4.4-8.7
		C105.6,121.7,106.8,118.9,109.2,116.6L109.2,116.6z"/>
	<path class="st7" d="M140.7,133.6c0-0.9-0.7-1.6-1.6-1.6c-0.9,0-1.6,0.7-1.6,1.6c0,0.9,0.7,1.6,1.6,1.6
		C140,135.2,140.7,134.5,140.7,133.6z M145.3,133.6c0-0.9-0.7-1.6-1.6-1.6c-0.9,0-1.6,0.7-1.6,1.6c0,0.9,0.7,1.6,1.6,1.6
		C144.5,135.2,145.3,134.5,145.3,133.6z"/>
</g>
<g class="st6">
	<path class="st25" d="M104.8,140.3l6.9-27.1c0.2-0.7,0.9-1.1,1.5-0.9l27.1,6.9c0.7,0.2,1.1,0.9,0.9,1.5l-6.9,27.1
		c-0.2,0.7-0.9,1.1-1.5,0.9l-27.1-6.9C105,141.6,104.6,140.9,104.8,140.3z"/>
	<path class="st26" d="M114.5,119l26.6-8.5c0.7-0.2,1.4,0.2,1.6,0.8l8.5,26.6c0.2,0.7-0.2,1.4-0.8,1.6l-26.6,8.5
		c-0.7,0.2-1.4-0.2-1.6-0.8l-8.5-26.6C113.5,119.9,113.8,119.2,114.5,119z"/>
	<path class="st27" d="M129.2,107.3c-1.2,0-2.3,1-2.3,2.3c0,1.2,1,2.3,2.3,2.3c1.2,0,2.3-1,2.3-2.3c0,0,0,0,0,0
		C131.4,108.3,130.4,107.3,129.2,107.3z"/>
	<path class="st7" d="M147.9,125.2c-0.1-0.4-0.5-0.6-0.9-0.5c-0.4,0.1-0.6,0.5-0.5,0.9l4,12.5c0.1,0.3-0.1,0.6-0.3,0.7l-26.6,8.5
		c-0.3,0.1-0.6-0.1-0.7-0.3c0,0,0,0,0,0l-8.5-26.6c-0.1-0.3,0.1-0.6,0.3-0.7l11.9-3.8l-0.5,1.7c-0.1,0.4,0.1,0.8,0.5,0.9
		c0.4,0.1,0.8-0.1,0.9-0.5l0.8-2.7l13.1-4.2c0.3-0.1,0.6,0.1,0.7,0.3c0,0,0,0,0,0l1.6,4.9c0.1,0.4,0.5,0.6,0.9,0.5
		c0.4-0.1,0.6-0.5,0.5-0.9l0,0l-1.6-4.9c-0.3-1-1.4-1.6-2.5-1.3c0,0,0,0,0,0l-12.1,3.9l0.3-1.1c0,0,0.1,0,0.1,0c1.7,0,3-1.3,3-3
		s-1.3-3-3-3c-1.7,0-3,1.3-3,3c0,1.1,0.6,2.1,1.5,2.6l-0.6,2l-1.5,0.5l-12.2-3.1c-1.1-0.3-2.1,0.4-2.4,1.4c0,0,0,0,0,0l-6.9,27.1
		c-0.3,1.1,0.4,2.1,1.4,2.4c0,0,0,0,0,0l2.3,0.6c0.4,0.1,0.8-0.1,0.9-0.5c0.1-0.4-0.1-0.8-0.5-0.9c0,0,0,0,0,0l-2.3-0.6
		c-0.1,0-0.2-0.1-0.3-0.2c-0.1-0.1-0.1-0.3-0.1-0.4l6.9-27.1c0.1-0.3,0.4-0.4,0.6-0.4c0,0,0,0,0,0l10,2.5l-8.7,2.8
		c-1,0.3-1.6,1.4-1.3,2.5c0,0,0,0,0,0l7.7,24.1l-8.9-2.3c-0.4-0.1-0.8,0.1-0.9,0.5s0.1,0.8,0.5,0.9l9.7,2.5l0.3,0.9
		c0.3,0.8,1,1.4,1.9,1.4c0.5,0,0.6-0.1,3.2-0.9l6,1.5c1.1,0.3,2.1-0.4,2.4-1.4c0,0,0,0,0,0l0.8-3l14.9-4.7c1-0.3,1.6-1.4,1.3-2.5
		c0,0,0,0,0,0L147.9,125.2z M127.6,109.6c0-0.8,0.7-1.5,1.5-1.5s1.5,0.7,1.5,1.5c0,0.8-0.7,1.5-1.5,1.5c0,0,0,0,0,0
		C128.3,111.1,127.6,110.4,127.6,109.6L127.6,109.6z M133.6,147.6c-0.1,0.3-0.4,0.4-0.6,0.4c0,0,0,0,0,0l-3.7-0.9l4.9-1.6
		L133.6,147.6z"/>
	<path class="st7" d="M146.1,119.6c-0.1-0.4-0.5-0.6-0.9-0.5c-0.4,0.1-0.6,0.5-0.5,0.9c0,0,0,0,0,0l0.6,2c0.1,0.3,0.4,0.5,0.7,0.5
		c0.4,0,0.7-0.3,0.7-0.7c0-0.1,0-0.1,0-0.2L146.1,119.6z M138.7,117.7l-18,5.8c-0.4,0.1-0.6,0.5-0.5,0.9c0.1,0.3,0.4,0.5,0.7,0.5
		c0.1,0,0.2,0,0.2,0l18-5.8c0.4-0.1,0.6-0.5,0.5-0.9C139.5,117.8,139.1,117.5,138.7,117.7C138.7,117.7,138.7,117.7,138.7,117.7
		L138.7,117.7z M140.4,123l-18,5.8c-0.4,0.1-0.6,0.5-0.5,0.9c0.1,0.4,0.5,0.6,0.9,0.5l18-5.8c0.4-0.1,0.6-0.5,0.5-0.9
		C141.2,123.1,140.8,122.9,140.4,123L140.4,123z M142.1,128.3l-18,5.8c-0.4,0.1-0.6,0.5-0.5,0.9c0.1,0.4,0.5,0.6,0.9,0.5
		c0,0,0,0,0,0l18-5.8c0.4-0.1,0.6-0.5,0.5-0.9C142.9,128.4,142.5,128.2,142.1,128.3C142.1,128.3,142.1,128.3,142.1,128.3
		L142.1,128.3z M143.8,133.6l-18,5.8c-0.4,0.1-0.6,0.5-0.5,0.9c0.1,0.4,0.5,0.6,0.9,0.5l18-5.8c0.4-0.1,0.6-0.5,0.5-0.9
		C144.6,133.7,144.2,133.5,143.8,133.6z"/>
</g>
<g>
	<path class="st28" d="M131.4,143.9c0,1.8,0.5,3.7,1.6,5.2h-27.8v-5.8c0-9.6,7.8-17.4,17.4-17.4h1.1c6.2,0,11.9,3.3,15.1,8.6
		C134.5,135.6,131.4,139.5,131.4,143.9z"/>
	<circle class="st29" cx="123.2" cy="114.2" r="11.8"/>
	<path class="st30" d="M150.9,143.9c0,5.4-4.3,9.7-9.7,9.7s-9.7-4.3-9.7-9.7c0-4.5,3-8.3,7.3-9.4c0.8-0.2,1.6-0.3,2.4-0.3
		C146.5,134.2,150.9,138.5,150.9,143.9L150.9,143.9z"/>
	<path class="st31" d="M111.1,118.8c-0.1-0.2-0.1-0.3-0.2-0.5c-0.2-0.6,0.1-1.2,0.7-1.4c0.6-0.2,1.2,0.1,1.4,0.7
		c0.1,0.1,0.1,0.3,0.1,0.5c0.2,0.6-0.1,1.2-0.7,1.5C111.9,119.7,111.3,119.4,111.1,118.8z M152,143.9c0,6-4.8,10.9-10.9,10.9
		c-3.5,0-6.7-1.6-8.8-4.5h-6.7c-0.7,0-1.2-0.5-1.2-1.2c0-0.7,0.5-1.2,1.2-1.2h5.4c-0.6-1.4-0.8-2.8-0.8-4.1c0-4,2.2-8.1,6.7-10
		c-3.1-4.2-8-6.7-13.3-6.7h-1.1c-9,0-16.2,7.3-16.3,16.3v4.7h14.1c0.7,0,1.2,0.5,1.2,1.2s-0.5,1.2-1.2,1.2h-15.3
		c-0.7,0-1.1-0.5-1.2-1.2v-5.8c0-8.2,5.3-15.3,13.1-17.7c-1.4-0.7-2.7-1.7-3.7-2.9c-0.4-0.5-0.4-1.2,0.1-1.6
		c0.5-0.4,1.2-0.4,1.6,0.1c2,2.3,4.9,3.6,8,3.6c5.9,0,10.6-4.8,10.5-10.7c-0.1-5.9-4.8-10.6-10.7-10.5c-5.8,0-10.5,4.8-10.5,10.6
		c0,0.7-0.5,1.2-1.2,1.2c-0.7,0-1.2-0.5-1.2-1.2c0-7.1,5.8-13,12.9-13c7.1-0.1,13,5.8,13,12.9c0,4.8-2.7,9.3-7,11.5
		c4.2,1.3,7.8,4,10.2,7.7C145.9,132.1,152,137.2,152,143.9z M149.7,143.9c0-4.7-3.9-8.6-8.6-8.6c-4.7,0-8.6,3.9-8.6,8.6
		c0,4.7,3.9,8.6,8.6,8.6C145.9,152.5,149.7,148.7,149.7,143.9z M145.6,142.8h-3.3v-3.2c0-0.7-0.5-1.2-1.2-1.2
		c-0.7,0-1.2,0.5-1.2,1.2v3.2h-3.3c-0.7,0-1.2,0.5-1.2,1.2c0,0.7,0.5,1.2,1.2,1.2h3.3v3.3c0,0.7,0.5,1.2,1.2,1.2
		c0.7,0,1.2-0.5,1.2-1.2v-3.3h3.3c0.7,0,1.2-0.5,1.2-1.2C146.8,143.3,146.2,142.8,145.6,142.8z"/>
</g>
</svg>
