<svg xmlns="http://www.w3.org/2000/svg" xml:space="preserve" id="Layer_1" x="0" y="0" version="1.1" viewBox="0 0 256 256">
  <style>
    .st6{display:none}.st7{display:inline}
  </style>
  <path fill="#fbfafc" d="M114.3 10.6c8.8-3.5 18.7-3.5 27.4 0l62.3 25c8.8 3.5 15.8 10.3 19.4 18.8l25.8 60.3c3.6 8.5 3.6 18.1 0 26.6l-25.8 60.3c-3.6 8.5-10.6 15.3-19.4 18.8l-62.3 25c-8.8 3.5-18.7 3.5-27.4 0l-62.3-25c-8.8-3.5-15.8-10.3-19.4-18.8L6.7 141.3c-3.6-8.5-3.6-18.1 0-26.6l25.8-60.3c3.6-8.5 10.6-15.3 19.4-18.8l62.4-25z"/>
  <path fill="#f8f6fa" d="M118.8 33.8c5.9-2.4 12.6-2.4 18.5 0l50.8 21.1c5.9 2.4 10.6 7.1 13.1 13.1l21.1 50.8c2.4 5.9 2.4 12.6 0 18.5l-21.1 50.8c-2.4 5.9-7.1 10.6-13.1 13.1l-50.8 21.1c-5.9 2.4-12.6 2.4-18.5 0L68 201.2c-5.9-2.4-10.6-7.1-13.1-13.1l-21.1-50.8c-2.4-5.9-2.4-12.6 0-18.5L54.9 68c2.4-6 7.1-10.7 13-13.1l50.9-21.1z"/>
  <path fill="#ece6f2" d="M119.8 77.6c5.3-2.2 11.2-2.2 16.5 0l21.6 8.9c5.3 2.2 9.5 6.4 11.6 11.6l8.9 21.6c2.2 5.3 2.2 11.2 0 16.5l-8.9 21.6c-2.2 5.3-6.4 9.5-11.6 11.6l-21.6 8.9c-5.3 2.2-11.2 2.2-16.5 0l-21.6-8.9c-5.3-2.2-9.5-6.4-11.6-11.6l-8.9-21.6c-2.2-5.3-2.2-11.2 0-16.5l8.9-21.6c2.2-5.3 6.4-9.5 11.6-11.6l21.6-8.9z"/>
  <path fill="#f99b1c" d="M19.5 49.7c-.2 2.5-2.2 5.6.2 7.7 2.1 1.8 4.8.5 7.2.6 2.7.2 1.5 2.6 1.2 4.3-.2 1.3-.4 2.7.2 4 1 2 3.6 3.2 5.6 1.8 1.2-.9 0-3-1.2-2.1-2 1.5-2.4-2.1-2.2-3.1.2-1.1.6-2.3.7-3.5 0-1.7-.9-3-2.5-3.5-2-.7-3.7.1-5.7 0-3.6-.1-1.2-4.3-1.1-6.3.2-1.5-2.3-1.5-2.4.1zM34.2 52c-1 2.1-1.9 4.7-.4 6.8.6.8 1.4 1.3 2.3 1.4.6.1 1.5-.2 2 0 .9.4 1.4 1.4 1 2.4-.7 1.4 1.4 2.6 2.1 1.2.8-1.8.5-3.8-1.1-5.1-.9-.7-1.7-.7-2.7-.8-2.9-.3-2.1-2.7-1.2-4.6.7-1.5-1.3-2.7-2-1.3z"/>
  <path fill="#64c4ac" d="M244.3 93.1c-.2-2.9 3.4-4.5 5-1.8 1.3 2.4-1.3 4.4-3.5 3.7-1.5-.5-2.1 1.8-.7 2.4 4.5 1.6 8.8-3.5 6.1-7.6-2.9-4.4-9.7-1.8-9.3 3.3.1 1.5 2.5 1.6 2.4 0z"/>
  <path fill="none" stroke="#7cc3ec" stroke-width="1.2" d="m86.3 209.5-4.7-1.7-4.2 2.6.3-4.6-4-2.9 4.9-1.2 1.7-4.4 2.8 3.9 5.1.2L85 205l1.3 4.5z"/>
  <path fill="#e97389" d="m104.8 140.3 6.9-27.1c.2-.7.9-1.1 1.5-.9l27.1 6.9c.7.2 1.1.9.9 1.5l-6.9 27.1c-.2.7-.9 1.1-1.5.9l-27.1-6.9c-.7-.2-1.1-.9-.9-1.5z"/>
  <path fill="#ffd88e" d="m114.5 119 26.6-8.5c.7-.2 1.4.2 1.6.8l8.5 26.6c.2.7-.2 1.4-.8 1.6l-26.6 8.5c-.7.2-1.4-.2-1.6-.8l-8.5-26.6c-.2-.7.1-1.4.8-1.6z"/>
  <path fill="#8fcc94" d="M129.2 107.3c-1.2 0-2.3 1-2.3 2.3 0 1.2 1 2.3 2.3 2.3 1.2 0 2.3-1 2.3-2.3-.1-1.3-1.1-2.3-2.3-2.3z"/>
  <path d="M147.9 125.2c-.1-.4-.5-.6-.9-.5-.4.1-.6.5-.5.9l4 12.5c.1.3-.1.6-.3.7l-26.6 8.5c-.3.1-.6-.1-.7-.3l-8.5-26.6c-.1-.3.1-.6.3-.7l11.9-3.8-.5 1.7c-.1.4.1.8.5.9.4.1.8-.1.9-.5l.8-2.7 13.1-4.2c.3-.1.6.1.7.3l1.6 4.9c.1.4.5.6.9.5.4-.1.6-.5.5-.9l-1.6-4.9c-.3-1-1.4-1.6-2.5-1.3l-12.1 3.9.3-1.1h.1c1.7 0 3-1.3 3-3s-1.3-3-3-3-3 1.3-3 3c0 1.1.6 2.1 1.5 2.6l-.6 2-1.5.5-12.2-3.1c-1.1-.3-2.1.4-2.4 1.4l-6.9 27.1c-.3 1.1.4 2.1 1.4 2.4l2.3.6c.4.1.8-.1.9-.5.1-.4-.1-.8-.5-.9l-2.3-.6c-.1 0-.2-.1-.3-.2-.1-.1-.1-.3-.1-.4l6.9-27.1c.1-.3.4-.4.6-.4l10 2.5-8.7 2.8c-1 .3-1.6 1.4-1.3 2.5l7.7 24.1-8.9-2.3c-.4-.1-.8.1-.9.5s.1.8.5.9l9.7 2.5.3.9c.3.8 1 1.4 1.9 1.4.5 0 .6-.1 3.2-.9l6 1.5c1.1.3 2.1-.4 2.4-1.4l.8-3 14.9-4.7c1-.3 1.6-1.4 1.3-2.5l-4.1-12.5zm-20.3-15.6c0-.8.7-1.5 1.5-1.5s1.5.7 1.5 1.5-.7 1.5-1.5 1.5-1.5-.7-1.5-1.5zm6 38c-.1.3-.4.4-.6.4l-3.7-.9 4.9-1.6-.6 2.1z"/>
  <path d="M146.1 119.6c-.1-.4-.5-.6-.9-.5-.4.1-.6.5-.5.9l.6 2c.1.3.4.5.7.5.4 0 .7-.3.7-.7v-.2l-.6-2zm-7.4-1.9-18 5.8c-.4.1-.6.5-.5.9.1.3.4.5.7.5h.2l18-5.8c.4-.1.6-.5.5-.9-.1-.4-.5-.7-.9-.5zm1.7 5.3-18 5.8c-.4.1-.6.5-.5.9.1.4.5.6.9.5l18-5.8c.4-.1.6-.5.5-.9-.1-.4-.5-.6-.9-.5zm1.7 5.3-18 5.8c-.4.1-.6.5-.5.9.1.4.5.6.9.5l18-5.8c.4-.1.6-.5.5-.9-.1-.4-.5-.6-.9-.5zm1.7 5.3-18 5.8c-.4.1-.6.5-.5.9.1.4.5.6.9.5l18-5.8c.4-.1.6-.5.5-.9-.1-.4-.5-.6-.9-.5z"/>
</svg>