<svg xmlns="http://www.w3.org/2000/svg" xml:space="preserve" id="Layer_1" x="0" y="0" version="1.1" viewBox="0 0 256 256">
  <style>
    .st9{fill:#151449}.st10{display:none}.st13{display:inline}.st15{fill:#392111}.st22{fill:#3a1e08}
  </style>
  <path fill="#fbfafc" d="M114.3 10.6c8.8-3.5 18.7-3.5 27.4 0l62.3 25c8.8 3.5 15.8 10.3 19.4 18.8l25.8 60.3c3.6 8.5 3.6 18.1 0 26.6l-25.8 60.3c-3.6 8.5-10.6 15.3-19.4 18.8l-62.3 25c-8.8 3.5-18.7 3.5-27.4 0l-62.3-25c-8.8-3.5-15.8-10.3-19.4-18.8L6.7 141.3c-3.6-8.5-3.6-18.1 0-26.6l25.8-60.3c3.6-8.5 10.6-15.3 19.4-18.8l62.4-25z"/>
  <path fill="#f8f6fa" d="M118.8 33.8c5.9-2.4 12.6-2.4 18.5 0l50.8 21.1c5.9 2.4 10.6 7.1 13.1 13.1l21.1 50.8c2.4 5.9 2.4 12.6 0 18.5l-21.1 50.8c-2.4 5.9-7.1 10.6-13.1 13.1l-50.8 21.1c-5.9 2.4-12.6 2.4-18.5 0L68 201.2c-5.9-2.4-10.6-7.1-13.1-13.1l-21.1-50.8c-2.4-5.9-2.4-12.6 0-18.5L54.9 68c2.4-6 7.1-10.7 13-13.1l50.9-21.1z"/>
  <path fill="#ece6f2" d="M119.8 77.6c5.3-2.2 11.2-2.2 16.5 0l21.6 8.9c5.3 2.2 9.5 6.4 11.6 11.6l8.9 21.6c2.2 5.3 2.2 11.2 0 16.5l-8.9 21.6c-2.2 5.3-6.4 9.5-11.6 11.6l-21.6 8.9c-5.3 2.2-11.2 2.2-16.5 0l-21.6-8.9c-5.3-2.2-9.5-6.4-11.6-11.6l-8.9-21.6c-2.2-5.3-2.2-11.2 0-16.5l8.9-21.6c2.2-5.3 6.4-9.5 11.6-11.6l21.6-8.9z"/>
  <path fill="#f99b1c" d="M19.5 49.7c-.2 2.5-2.2 5.6.2 7.7 2.1 1.8 4.8.5 7.2.6 2.7.2 1.5 2.6 1.2 4.3-.2 1.3-.4 2.7.2 4 1 2 3.6 3.2 5.6 1.8 1.2-.9 0-3-1.2-2.1-2 1.5-2.4-2.1-2.2-3.1.2-1.1.6-2.3.7-3.5 0-1.7-.9-3-2.5-3.5-2-.7-3.7.1-5.7 0-3.6-.1-1.2-4.3-1.1-6.3.2-1.5-2.3-1.5-2.4.1zM34.2 52c-1 2.1-1.9 4.7-.4 6.8.6.8 1.4 1.3 2.3 1.4.6.1 1.5-.2 2 0 .9.4 1.4 1.4 1 2.4-.7 1.4 1.4 2.6 2.1 1.2.8-1.8.5-3.8-1.1-5.1-.9-.7-1.7-.7-2.7-.8-2.9-.3-2.1-2.7-1.2-4.6.7-1.5-1.3-2.7-2-1.3z"/>
  <path fill="#64c4ac" d="M244.3 93.1c-.2-2.9 3.4-4.5 5-1.8 1.3 2.4-1.3 4.4-3.5 3.7-1.5-.5-2.1 1.8-.7 2.4 4.5 1.6 8.8-3.5 6.1-7.6-2.9-4.4-9.7-1.8-9.3 3.3.1 1.5 2.5 1.6 2.4 0z"/>
  <path fill="none" stroke="#7cc3ec" stroke-width="1.2" d="m86.3 209.5-4.7-1.7-4.2 2.6.3-4.6-4-2.9 4.9-1.2 1.7-4.4 2.8 3.9 5.1.2L85 205l1.3 4.5z"/>
  <path fill="#fcb22e" d="M111.3 123.5h33.3c2.9 0 5.3 2.4 5.3 5.3v20c0 2.9-2.4 5.3-5.3 5.3h-33.3c-2.9 0-5.3-2.4-5.3-5.3v-20c0-2.9 2.4-5.3 5.3-5.3z"/>
  <path fill="#eaeae4" d="M128 101.9c-8.9 0-16.1 7.2-16.1 16v5.6h4.6V118c0-6.3 5.1-11.4 11.4-11.4 6.3 0 11.4 5.1 11.4 11.4v5.6h4.6V118c.2-8.9-7-16.1-15.9-16.1z"/>
  <path fill="#4569b2" d="M132.1 136c0-2.2-1.8-4.1-4.1-4.1s-4.1 1.8-4.1 4.1c0 1.4.7 2.7 1.9 3.5v4.1c0 1.2 1 2.1 2.1 2.1 1.2 0 2.1-1 2.1-2.1v-4.1c1.3-.8 2.1-2.1 2.1-3.5z"/>
  <path d="M145.1 122.5V118c0-9.4-7.7-17-17.1-17s-17.1 7.6-17.1 17v4.6c-3.3.2-5.9 3-5.9 6.3v20c0 3.5 2.8 6.3 6.3 6.3h33.3c3.5 0 6.3-2.8 6.3-6.3v-7.1c0-.6-.5-1-1-1-.6 0-1 .5-1 1v7.1c0 2.4-1.9 4.3-4.3 4.3h-33.3c-2.4 0-4.3-1.9-4.3-4.3v-20c0-2.4 1.9-4.3 4.3-4.3h33.3c2.4 0 4.3 1.9 4.3 4.3v1.6c0 .6.5 1 1 1 .6 0 1-.5 1-1v-1.6c.1-3.4-2.5-6.1-5.8-6.4zm-6.7 0h-20.8V118c0-5.7 4.7-10.4 10.4-10.4 5.8 0 10.4 4.6 10.4 10.4v4.5zm2 0V118c0-6.9-5.6-12.4-12.4-12.4-6.9 0-12.4 5.6-12.4 12.4v4.5H113V118c0-8.3 6.7-15 15.1-15s15.1 6.7 15.1 15v4.5h-2.8z" class="st9"/>
  <path d="M150 135c-.6 0-1 .5-1 1v.2c0 .6.5 1 1 1 .6 0 1-.5 1-1v-.2c0-.6-.5-1-1-1zm-22 11.7c1.7 0 3.1-1.4 3.1-3.1V140c2.2-1.7 2.6-4.9.8-7.1-1.7-2.2-4.9-2.6-7.1-.8-2.2 1.7-2.6 4.9-.8 7.1.2.3.5.6.8.8v3.6c.1 1.7 1.5 3.1 3.2 3.1zm0-13.7c1.7 0 3 1.4 3.1 3 0 1.1-.5 2-1.5 2.6-.3.2-.5.5-.5.9v4.1c0 .6-.5 1.1-1.1 1.1-.6 0-1.1-.5-1.1-1.1v-4.1c0-.4-.2-.7-.5-.9-1.4-.9-1.9-2.7-1-4.2.6-.9 1.5-1.4 2.6-1.4z" class="st9"/>
</svg>