<svg xmlns="http://www.w3.org/2000/svg" xml:space="preserve" viewBox="0 0 256 256">
  <path fill="#fbfafc" d="M114.3 10.6c8.8-3.5 18.7-3.5 27.4 0l62.3 25c8.8 3.5 15.8 10.3 19.4 18.8l25.8 60.3c3.6 8.5 3.6 18.1 0 26.6l-25.8 60.3c-3.6 8.5-10.6 15.3-19.4 18.8l-62.3 25c-8.8 3.5-18.7 3.5-27.4 0l-62.3-25c-8.8-3.5-15.8-10.3-19.4-18.8L6.7 141.3c-3.6-8.5-3.6-18.1 0-26.6l25.8-60.3c3.6-8.5 10.6-15.3 19.4-18.8l62.4-25z"/>
  <path fill="#f8f6fa" d="M118.8 33.8c5.9-2.4 12.6-2.4 18.5 0l50.8 21.1c5.9 2.4 10.6 7.1 13.1 13.1l21.1 50.8c2.4 5.9 2.4 12.6 0 18.5l-21.1 50.8c-2.4 5.9-7.1 10.6-13.1 13.1l-50.8 21.1c-5.9 2.4-12.6 2.4-18.5 0L68 201.2c-5.9-2.4-10.6-7.1-13.1-13.1l-21.1-50.8c-2.4-5.9-2.4-12.6 0-18.5L54.9 68c2.4-6 7.1-10.7 13-13.1l50.9-21.1z"/>
  <path fill="#ece6f2" d="M119.8 77.6c5.3-2.2 11.2-2.2 16.5 0l21.6 8.9c5.3 2.2 9.5 6.4 11.6 11.6l8.9 21.6c2.2 5.3 2.2 11.2 0 16.5l-8.9 21.6c-2.2 5.3-6.4 9.5-11.6 11.6l-21.6 8.9c-5.3 2.2-11.2 2.2-16.5 0l-21.6-8.9c-5.3-2.2-9.5-6.4-11.6-11.6l-8.9-21.6c-2.2-5.3-2.2-11.2 0-16.5l8.9-21.6c2.2-5.3 6.4-9.5 11.6-11.6l21.6-8.9z"/>
  <path fill="#f99b1c" d="M19.5 49.7c-.2 2.5-2.2 5.6.2 7.7 2.1 1.8 4.8.5 7.2.6 2.7.2 1.5 2.6 1.2 4.3-.2 1.3-.4 2.7.2 4 1 2 3.6 3.2 5.6 1.8 1.2-.9 0-3-1.2-2.1-2 1.5-2.4-2.1-2.2-3.1.2-1.1.6-2.3.7-3.5 0-1.7-.9-3-2.5-3.5-2-.7-3.7.1-5.7 0-3.6-.1-1.2-4.3-1.1-6.3.2-1.5-2.3-1.5-2.4.1zM34.2 52c-1 2.1-1.9 4.7-.4 6.8.6.8 1.4 1.3 2.3 1.4.6.1 1.5-.2 2 0 .9.4 1.4 1.4 1 2.4-.7 1.4 1.4 2.6 2.1 1.2.8-1.8.5-3.8-1.1-5.1-.9-.7-1.7-.7-2.7-.8-2.9-.3-2.1-2.7-1.2-4.6.7-1.5-1.3-2.7-2-1.3z"/>
  <path fill="#64c4ac" d="M244.3 93.1c-.2-2.9 3.4-4.5 5-1.8 1.3 2.4-1.3 4.4-3.5 3.7-1.5-.5-2.1 1.8-.7 2.4 4.5 1.6 8.8-3.5 6.1-7.6-2.9-4.4-9.7-1.8-9.3 3.3.1 1.5 2.5 1.6 2.4 0z"/>
  <path fill="none" stroke="#7cc3ec" stroke-width="1.2" d="m86.3 209.5-4.7-1.7-4.2 2.6.3-4.6-4-2.9 4.9-1.2 1.7-4.4 2.8 3.9 5.1.2L85 205l1.3 4.5z"/>
  <path fill="#ffca3a" d="m146.4 110.4-.3 6.4-1 20.2c-1.2-.6-2.5-.8-3.9-.8-5.4 0-9.7 4.4-9.7 9.7 0 1.1.2 2.2.6 3.2h-18.3c-3.8 0-7-3-7.1-6.8l-1.2-25.5-.3-6.4h41.2z"/>
  <path fill="#8ac926" d="M151 145.9c0 5.4-4.4 9.7-9.7 9.7-4.1 0-7.8-2.6-9.2-6.5-.4-1-.6-2.1-.6-3.2 0-5.4 4.4-9.7 9.7-9.7 1.4 0 2.6.2 3.9.8 3.6 1.5 5.9 5 5.9 8.9z"/>
  <path fill="#001363" d="M147 145.9c0 .6-.5 1.1-1.1 1.1h-3.5v3.5c0 .6-.5 1.1-1.1 1.1-.6 0-1.1-.5-1.1-1.1V147h-3.5c-.6 0-1.1-.5-1.1-1.1s.5-1.1 1.1-1.1h3.5v-3.5c0-.6.5-1.1 1.1-1.1.6 0 1.1.5 1.1 1.1v3.5h3.5c.6 0 1.1.5 1.1 1.1zm-41.3-22.3c.6 0 1.1-.6 1-1.1l-.1-.7c0-.6-.6-1-1.1-1-.6 0-1 .6-1 1.1l.1.7c0 .5.4 1 1.1 1zm46.3 22.3c0 6-4.9 10.8-10.8 10.8-4.3 0-8.2-2.6-9.9-6.5h-17.6c-4.4 0-8-3.4-8.2-7.8l-.7-13.5c0-.6.4-1.1 1-1.1s1.1.4 1.1 1l.7 13.5c.1 3.2 2.8 5.7 6 5.7h17c-1.2-5.8 2.6-11.5 8.4-12.7 1.7-.4 3.4-.2 5 .2l1.2-24.1h-8.5v3.6c0 .6-.5 1.1-1.1 1.1s-1.1-.5-1.1-1.1v-3.6h-17.8v3.6c0 .6-.5 1.1-1.1 1.1s-1.1-.5-1.1-1.1v-3.6h-8.4l.2 3.6c0 .6-.4 1.1-1 1.1s-1.1-.4-1.1-1l-.2-4.7c0-.6.4-1.1 1-1.1h9.7v-2.6c0-4 3.3-7.3 7.3-7.3h7.6c4 0 7.3 3.3 7.3 7.3v2.6h9.6c.6 0 1.1.5 1.1 1v.1l-1.2 25.9c3.4 1.9 5.6 5.5 5.6 9.6zm-17.4-36.6v-2.6c0-2.8-2.3-5.2-5.2-5.2h-7.6c-2.8 0-5.2 2.3-5.2 5.2v2.6h18zm15.2 36.6c0-4.8-3.9-8.6-8.6-8.6-4.7 0-8.6 3.9-8.6 8.6 0 5.8 5.8 10.1 11.4 8.1 3.5-1.1 5.8-4.5 5.8-8.1z"/>
</svg>