<svg xmlns="http://www.w3.org/2000/svg" xml:space="preserve" id="Layer_1" x="0" y="0" version="1.1" viewBox="0 0 256 256">
  <style>
    .st6{display:none}.st9{fill:#4569b2}.st10,.st9{display:inline}.st11{fill:#151449}.st14{fill:#392111}
  </style>
  <path fill="#fbfafc" d="M114.3 10.6c8.8-3.5 18.7-3.5 27.4 0l62.3 25c8.8 3.5 15.8 10.3 19.4 18.8l25.8 60.3c3.6 8.5 3.6 18.1 0 26.6l-25.8 60.3c-3.6 8.5-10.6 15.3-19.4 18.8l-62.3 25c-8.8 3.5-18.7 3.5-27.4 0l-62.3-25c-8.8-3.5-15.8-10.3-19.4-18.8L6.7 141.3c-3.6-8.5-3.6-18.1 0-26.6l25.8-60.3c3.6-8.5 10.6-15.3 19.4-18.8l62.4-25z"/>
  <path fill="#f8f6fa" d="M118.8 33.8c5.9-2.4 12.6-2.4 18.5 0l50.8 21.1c5.9 2.4 10.6 7.1 13.1 13.1l21.1 50.8c2.4 5.9 2.4 12.6 0 18.5l-21.1 50.8c-2.4 5.9-7.1 10.6-13.1 13.1l-50.8 21.1c-5.9 2.4-12.6 2.4-18.5 0L68 201.2c-5.9-2.4-10.6-7.1-13.1-13.1l-21.1-50.8c-2.4-5.9-2.4-12.6 0-18.5L54.9 68c2.4-6 7.1-10.7 13-13.1l50.9-21.1z"/>
  <path fill="#ece6f2" d="M119.8 77.6c5.3-2.2 11.2-2.2 16.5 0l21.6 8.9c5.3 2.2 9.5 6.4 11.6 11.6l8.9 21.6c2.2 5.3 2.2 11.2 0 16.5l-8.9 21.6c-2.2 5.3-6.4 9.5-11.6 11.6l-21.6 8.9c-5.3 2.2-11.2 2.2-16.5 0l-21.6-8.9c-5.3-2.2-9.5-6.4-11.6-11.6l-8.9-21.6c-2.2-5.3-2.2-11.2 0-16.5l8.9-21.6c2.2-5.3 6.4-9.5 11.6-11.6l21.6-8.9z"/>
  <path fill="#f99b1c" d="M19.5 49.7c-.2 2.5-2.2 5.6.2 7.7 2.1 1.8 4.8.5 7.2.6 2.7.2 1.5 2.6 1.2 4.3-.2 1.3-.4 2.7.2 4 1 2 3.6 3.2 5.6 1.8 1.2-.9 0-3-1.2-2.1-2 1.5-2.4-2.1-2.2-3.1.2-1.1.6-2.3.7-3.5 0-1.7-.9-3-2.5-3.5-2-.7-3.7.1-5.7 0-3.6-.1-1.2-4.3-1.1-6.3.2-1.5-2.3-1.5-2.4.1zM34.2 52c-1 2.1-1.9 4.7-.4 6.8.6.8 1.4 1.3 2.3 1.4.6.1 1.5-.2 2 0 .9.4 1.4 1.4 1 2.4-.7 1.4 1.4 2.6 2.1 1.2.8-1.8.5-3.8-1.1-5.1-.9-.7-1.7-.7-2.7-.8-2.9-.3-2.1-2.7-1.2-4.6.7-1.5-1.3-2.7-2-1.3z"/>
  <path fill="#64c4ac" d="M244.3 93.1c-.2-2.9 3.4-4.5 5-1.8 1.3 2.4-1.3 4.4-3.5 3.7-1.5-.5-2.1 1.8-.7 2.4 4.5 1.6 8.8-3.5 6.1-7.6-2.9-4.4-9.7-1.8-9.3 3.3.1 1.5 2.5 1.6 2.4 0z"/>
  <path fill="none" stroke="#7cc3ec" stroke-width="1.2" d="m86.3 209.5-4.7-1.7-4.2 2.6.3-4.6-4-2.9 4.9-1.2 1.7-4.4 2.8 3.9 5.1.2L85 205l1.3 4.5z"/>
  <path fill="#e03f3f" d="M108.5 145.7h38.9c1.9 0 3.5 1.6 3.5 3.5v1.8c0 1.9-1.6 3.5-3.5 3.5h-38.9c-1.9 0-3.5-1.6-3.5-3.5v-1.8c0-2 1.6-3.5 3.5-3.5z"/>
  <path fill="#ffb703" d="M128 113.9c-9 0-16.3 7.3-16.3 16.3v15.5h32.6v-15.5c0-9-7.3-16.3-16.3-16.3z"/>
  <path fill="#3f1906" d="M147.4 144.6h-2.1v-14.5c0-9.6-7.8-17.3-17.3-17.3s-17.3 7.8-17.3 17.3v14.5h-2.1c-2.5 0-4.6 2-4.6 4.6v1.8c0 2.5 2 4.6 4.6 4.6h19.1c.6 0 1-.5 1-1s-.5-1-1-1h-19.1c-1.4 0-2.5-1.1-2.5-2.5v-1.8c0-1.4 1.1-2.5 2.5-2.5h38.9c1.4 0 2.5 1.1 2.5 2.5v1.8c0 1.4-1.1 2.5-2.5 2.5h-6.1c-.6 0-1 .5-1 1s.5 1 1 1h6.1c2.5 0 4.6-2 4.6-4.6v-1.8c-.1-2.5-2.1-4.6-4.7-4.6zm-34.7-14.4c0-8.4 6.8-15.3 15.3-15.3 8.4 0 15.3 6.8 15.3 15.3v14.5h-30.5v-14.5zm24.3 24.3c0 .6-.5 1-1 1h-3c-.6 0-1-.5-1-1s.5-1 1-1h2.9c.6 0 1.1.4 1.1 1zm-10-49.2v-3.8c0-.6.5-1 1-1s1 .5 1 1v3.8c0 .6-.5 1-1 1s-1-.4-1-1zm-10.4-1.5c-.2-.5 0-1.1.5-1.4.5-.2 1.1 0 1.4.5v.1l1.4 3.5c.2.5 0 1.1-.5 1.4-.5.2-1.1 0-1.4-.5v-.1l-1.4-3.5zM108 110c-.4-.4-.4-1.1 0-1.5s1.1-.4 1.5 0l2.7 2.7c.4.4.4 1.1 0 1.5-.4.4-1.1.4-1.5 0L108 110zm28-3.4 1.4-3.5c.2-.5.8-.8 1.3-.6.5.2.8.8.6 1.3v.1l-1.4 3.5c-.2.5-.8.8-1.3.6-.5-.3-.8-.8-.6-1.4zm7.9 6.1c-.4-.4-.4-1.1 0-1.5l2.7-2.7c.4-.4 1.1-.4 1.5 0 .4.4.4 1.1 0 1.5l-2.7 2.7c-.5.4-1.1.4-1.5 0zm-18.3 6.3c.2.5 0 1.1-.6 1.3-3.2 1.3-5.7 4-6.6 7.4-.1.6-.7.9-1.3.7-.6-.1-.9-.7-.7-1.3 1.1-4 4-7.2 7.8-8.8.5-.1 1.1.2 1.4.7z"/>
</svg>