<svg xmlns="http://www.w3.org/2000/svg" xml:space="preserve" id="Layer_1" x="0" y="0" version="1.1" viewBox="0 0 256 256">
  <style>
    .st6{display:none}.st7{display:inline}
  </style>
  <path fill="#fbfafc" d="M114.3 10.6c8.8-3.5 18.7-3.5 27.4 0l62.3 25c8.8 3.5 15.8 10.3 19.4 18.8l25.8 60.3c3.6 8.5 3.6 18.1 0 26.6l-25.8 60.3c-3.6 8.5-10.6 15.3-19.4 18.8l-62.3 25c-8.8 3.5-18.7 3.5-27.4 0l-62.3-25c-8.8-3.5-15.8-10.3-19.4-18.8L6.7 141.3c-3.6-8.5-3.6-18.1 0-26.6l25.8-60.3c3.6-8.5 10.6-15.3 19.4-18.8l62.4-25z"/>
  <path fill="#f8f6fa" d="M118.8 33.8c5.9-2.4 12.6-2.4 18.5 0l50.8 21.1c5.9 2.4 10.6 7.1 13.1 13.1l21.1 50.8c2.4 5.9 2.4 12.6 0 18.5l-21.1 50.8c-2.4 5.9-7.1 10.6-13.1 13.1l-50.8 21.1c-5.9 2.4-12.6 2.4-18.5 0L68 201.2c-5.9-2.4-10.6-7.1-13.1-13.1l-21.1-50.8c-2.4-5.9-2.4-12.6 0-18.5L54.9 68c2.4-6 7.1-10.7 13-13.1l50.9-21.1z"/>
  <path fill="#ece6f2" d="M119.8 77.6c5.3-2.2 11.2-2.2 16.5 0l21.6 8.9c5.3 2.2 9.5 6.4 11.6 11.6l8.9 21.6c2.2 5.3 2.2 11.2 0 16.5l-8.9 21.6c-2.2 5.3-6.4 9.5-11.6 11.6l-21.6 8.9c-5.3 2.2-11.2 2.2-16.5 0l-21.6-8.9c-5.3-2.2-9.5-6.4-11.6-11.6l-8.9-21.6c-2.2-5.3-2.2-11.2 0-16.5l8.9-21.6c2.2-5.3 6.4-9.5 11.6-11.6l21.6-8.9z"/>
  <path fill="#f99b1c" d="M19.5 49.7c-.2 2.5-2.2 5.6.2 7.7 2.1 1.8 4.8.5 7.2.6 2.7.2 1.5 2.6 1.2 4.3-.2 1.3-.4 2.7.2 4 1 2 3.6 3.2 5.6 1.8 1.2-.9 0-3-1.2-2.1-2 1.5-2.4-2.1-2.2-3.1.2-1.1.6-2.3.7-3.5 0-1.7-.9-3-2.5-3.5-2-.7-3.7.1-5.7 0-3.6-.1-1.2-4.3-1.1-6.3.2-1.5-2.3-1.5-2.4.1zM34.2 52c-1 2.1-1.9 4.7-.4 6.8.6.8 1.4 1.3 2.3 1.4.6.1 1.5-.2 2 0 .9.4 1.4 1.4 1 2.4-.7 1.4 1.4 2.6 2.1 1.2.8-1.8.5-3.8-1.1-5.1-.9-.7-1.7-.7-2.7-.8-2.9-.3-2.1-2.7-1.2-4.6.7-1.5-1.3-2.7-2-1.3z"/>
  <path fill="#64c4ac" d="M244.3 93.1c-.2-2.9 3.4-4.5 5-1.8 1.3 2.4-1.3 4.4-3.5 3.7-1.5-.5-2.1 1.8-.7 2.4 4.5 1.6 8.8-3.5 6.1-7.6-2.9-4.4-9.7-1.8-9.3 3.3.1 1.5 2.5 1.6 2.4 0z"/>
  <path fill="none" stroke="#7cc3ec" stroke-width="1.2" d="m86.3 209.5-4.7-1.7-4.2 2.6.3-4.6-4-2.9 4.9-1.2 1.7-4.4 2.8 3.9 5.1.2L85 205l1.3 4.5z"/>
  <path fill="#ffca3a" d="M142.9 105h-29.7l-8.2 9.7h46.2l-8.3-9.7z"/>
  <path fill="#f99410" d="M104.9 114.7h46.2V151h-46.2v-36.3z"/>
  <path fill="#9874d1" d="M132 105h-8l-2.1 9.7H134l-2-9.7z"/>
  <path fill="#511da3" d="M121.9 114.7H134v10.6h-12.1v-10.6z"/>
  <path fill="#fffae3" d="M135.3 139.2H146v6.5h-10.7v-6.5z"/>
  <path fill="#001363" d="M104.1 132.3v-1.1c0-.5.4-.9.9-.9s.9.4.9.9v1.1c0 .5-.4.9-.9.9s-.9-.4-.9-.9zm47.9-17.6V151c0 .5-.4.9-.9.9h-46.2c-.5 0-.9-.4-.9-.9v-12.6c0-.5.4-.9.9-.9s.9.4.9.9v11.7h44.4v-34.5H135v9.7c0 .5-.4.9-.9.9H122c-.5 0-.9-.4-.9-.9v-9.7h-15.2v8.6c0 .5-.4.9-.9.9s-.9-.4-.9-.9v-9.5c0-.2.1-.4.2-.6l8.2-9.7c.2-.2.4-.3.7-.3h29.7c.3 0 .5.1.7.3l8.2 9.7c.1.2.2.4.2.6zm-27.3-8.8-1.7 7.9h9.9l-1.7-7.9h-6.5zm-17.8 7.9h14.4l1.6-7.9h-9.3l-6.7 7.9zm26.2 1.8h-10.3v8.8h10.3v-8.8zm16-1.8-6.7-7.9h-9.3l1.7 7.9h14.3zm-13.8 32.8c-.5 0-.9-.4-.9-.9v-6.5c0-.5.4-.9.9-.9H146c.5 0 .9.4.9.9v6.5c0 .5-.4.9-.9.9h-10.7zm.9-1.8h8.9v-4.7h-8.9v4.7z"/>
</svg>