<svg xmlns="http://www.w3.org/2000/svg" xml:space="preserve" id="Layer_1" x="0" y="0" version="1.1" viewBox="0 0 256 256">
  <style>
    .st6{display:none}
  </style>
  <path fill="#fbfafc" d="M114.3 10.6c8.8-3.5 18.7-3.5 27.4 0l62.3 25c8.8 3.5 15.8 10.3 19.4 18.8l25.8 60.3c3.6 8.5 3.6 18.1 0 26.6l-25.8 60.3c-3.6 8.5-10.6 15.3-19.4 18.8l-62.3 25c-8.8 3.5-18.7 3.5-27.4 0l-62.3-25c-8.8-3.5-15.8-10.3-19.4-18.8L6.7 141.3c-3.6-8.5-3.6-18.1 0-26.6l25.8-60.3c3.6-8.5 10.6-15.3 19.4-18.8l62.4-25z"/>
  <path fill="#f8f6fa" d="M118.8 33.8c5.9-2.4 12.6-2.4 18.5 0l50.8 21.1c5.9 2.4 10.6 7.1 13.1 13.1l21.1 50.8c2.4 5.9 2.4 12.6 0 18.5l-21.1 50.8c-2.4 5.9-7.1 10.6-13.1 13.1l-50.8 21.1c-5.9 2.4-12.6 2.4-18.5 0L68 201.2c-5.9-2.4-10.6-7.1-13.1-13.1l-21.1-50.8c-2.4-5.9-2.4-12.6 0-18.5L54.9 68c2.4-6 7.1-10.7 13-13.1l50.9-21.1z"/>
  <path fill="#ece6f2" d="M119.8 77.6c5.3-2.2 11.2-2.2 16.5 0l21.6 8.9c5.3 2.2 9.5 6.4 11.6 11.6l8.9 21.6c2.2 5.3 2.2 11.2 0 16.5l-8.9 21.6c-2.2 5.3-6.4 9.5-11.6 11.6l-21.6 8.9c-5.3 2.2-11.2 2.2-16.5 0l-21.6-8.9c-5.3-2.2-9.5-6.4-11.6-11.6l-8.9-21.6c-2.2-5.3-2.2-11.2 0-16.5l8.9-21.6c2.2-5.3 6.4-9.5 11.6-11.6l21.6-8.9z"/>
  <path fill="#f99b1c" d="M19.5 49.7c-.2 2.5-2.2 5.6.2 7.7 2.1 1.8 4.8.5 7.2.6 2.7.2 1.5 2.6 1.2 4.3-.2 1.3-.4 2.7.2 4 1 2 3.6 3.2 5.6 1.8 1.2-.9 0-3-1.2-2.1-2 1.5-2.4-2.1-2.2-3.1.2-1.1.6-2.3.7-3.5 0-1.7-.9-3-2.5-3.5-2-.7-3.7.1-5.7 0-3.6-.1-1.2-4.3-1.1-6.3.2-1.5-2.3-1.5-2.4.1zM34.2 52c-1 2.1-1.9 4.7-.4 6.8.6.8 1.4 1.3 2.3 1.4.6.1 1.5-.2 2 0 .9.4 1.4 1.4 1 2.4-.7 1.4 1.4 2.6 2.1 1.2.8-1.8.5-3.8-1.1-5.1-.9-.7-1.7-.7-2.7-.8-2.9-.3-2.1-2.7-1.2-4.6.7-1.5-1.3-2.7-2-1.3z"/>
  <path fill="#64c4ac" d="M244.3 93.1c-.2-2.9 3.4-4.5 5-1.8 1.3 2.4-1.3 4.4-3.5 3.7-1.5-.5-2.1 1.8-.7 2.4 4.5 1.6 8.8-3.5 6.1-7.6-2.9-4.4-9.7-1.8-9.3 3.3.1 1.5 2.5 1.6 2.4 0z"/>
  <path fill="none" stroke="#7cc3ec" stroke-width="1.2" d="m86.3 209.5-4.7-1.7-4.2 2.6.3-4.6-4-2.9 4.9-1.2 1.7-4.4 2.8 3.9 5.1.2L85 205l1.3 4.5z"/>
  <path fill="#4d91d8" d="M124.6 114.4h7.3l8.7-17.5h-7.3l-8.7 17.5z"/>
  <path fill="#44ce88" d="M113.5 109.6h29.1c1.5 0 2.7 1.2 2.7 2.7v44c0 1.5-1.2 2.7-2.7 2.7h-29.1c-1.5 0-2.7-1.2-2.7-2.7v-44c-.1-1.5 1.2-2.7 2.7-2.7z"/>
  <path fill="#f7db4d" d="m129.5 121 1.3 2c.2.4.6.7 1.1.8l2.3.6c1 .2 1.6 1.2 1.3 2.2-.1.3-.2.5-.4.7l-1.5 1.8c-.3.4-.5.8-.4 1.3l.2 2.4c.1 1-.7 1.9-1.7 1.9-.3 0-.5 0-.8-.1l-2.2-.9c-.4-.2-.9-.2-1.4 0l-2.2.9c-.9.4-2-.1-2.4-1-.1-.3-.1-.5-.1-.8l.2-2.4c0-.5-.1-.9-.4-1.3l-1.5-1.8c-.6-.8-.5-1.9.2-2.6.2-.2.5-.3.7-.4l2.3-.6c.5-.1.9-.4 1.1-.8l1.3-2c.5-.9 1.7-1.1 2.5-.6.2.2.4.4.5.7z"/>
  <path fill="#76a9e4" d="M131.9 114.4h-7.3L116 97h7.3l8.6 17.4z"/>
  <path d="M110.7 145.4c.5 0 1-.4 1-1v-2.7c0-.5-.4-1-1-1-.5 0-1 .4-1 1v2.7c.1.6.5 1 1 1z"/>
  <path d="M142.5 108.6h-6.7l5.6-11.2c.2-.5 0-1-.4-1.3-.1-.1-.3-.1-.4-.1h-7.3c-.4 0-.7.2-.9.5l-4.2 8.4-4.2-8.4c-.2-.3-.5-.5-.9-.5H116c-.5 0-1 .4-1 1 0 .1 0 .3.1.4l5.6 11.2h-7.2c-2 0-3.7 1.7-3.7 3.7v6.9c0 .5.4 1 1 1 .5 0 1-.4 1-1v-6.9c0-1 .8-1.8 1.8-1.8h8.2l1.5 2.9H122c-.5 0-1 .4-1 1s.4 1 1 1h12.5c.5 0 1-.4 1-1s-.4-1-1-1h-1.7l-1.5-2.9h11.5c1 0 1.8.8 1.8 1.8v44c0 1-.8 1.8-1.8 1.8h-29.1c-1 0-1.8-.8-1.8-1.8v-6.9c0-.5-.4-1-1-1s-1 .4-1 1v6.9c0 2 1.7 3.7 3.7 3.7h29.1c2 0 3.7-1.7 3.7-3.7v-44c-.2-2-1.8-3.7-3.9-3.7zm-19.9-10.7 7.7 15.5h-5.1c-1.9-3.8-5.8-11.7-7.7-15.5h5.1zm6.7 9.2 4.6-9.2h5.1l-5.3 10.7h-3.6l-.8-1.5z"/>
  <path d="M110.7 137.7c.5 0 1-.4 1-1v-12.6c0-.5-.4-1-1-1-.5 0-1 .4-1 1v12.6c.1.6.5 1 1 1zm17.3-18.5c-1 0-1.8.5-2.4 1.3l-1.3 2c-.1.2-.3.3-.5.4l-2.3.6c-1.5.4-2.4 1.9-2 3.4.1.4.3.8.6 1.1l1.5 1.8c.1.2.2.4.2.6l-.2 2.4c-.1 1.5 1 2.9 2.6 3 .4 0 .8 0 1.2-.2l2.2-.9c.2-.1.4-.1.6 0l2.2.9c1.4.6 3-.1 3.6-1.5.2-.4.2-.8.2-1.2l-.2-2.4c0-.2.1-.4.2-.6l1.5-1.8c1-1.2.8-2.9-.3-3.9-.3-.3-.7-.5-1.1-.6l-2.3-.6c-.2-.1-.4-.2-.5-.4l-1.3-2c-.4-1-1.3-1.4-2.2-1.4zm3.6 5.5 2.3.6c.5.1.7.6.6 1 0 .1-.1.2-.2.3l-1.5 1.8c-.5.6-.7 1.3-.6 2l.2 2.4c0 .5-.3.9-.8.9-.1 0-.3 0-.4-.1l-2.2-.9c-.7-.3-1.4-.3-2.1 0l-2.2.9c-.4.2-.9 0-1.1-.5 0-.1-.1-.3-.1-.4l.2-2.4c.1-.7-.2-1.4-.6-2l-1.5-1.8c-.3-.4-.3-.9.1-1.2.1-.1.2-.1.3-.2l2.3-.6c.7-.2 1.3-.6 1.7-1.2l1.3-2c.3-.4.8-.5 1.2-.3l.3.3 1.3 2c.2.8.8 1.2 1.5 1.4zm-14.1 16.7c-.5.2-.8.7-.6 1.2l3.6 9.8c.1.4.5.6.9.6s.8-.2.9-.6l3.8-9.8c.2-.5 0-1-.5-1.2-.5-.2-1 0-1.2.5l-2.9 7.5-2.7-7.5c-.2-.4-.8-.7-1.3-.5zm10.3.9v9.8c0 .5.4 1 1 1 .5 0 1-.4 1-1v-9.8c0-.5-.4-1-1-1s-1 .5-1 1zm5.1-1c-.5 0-1 .4-1 1v9.8c0 .5.4 1 1 1 .5 0 1-.4 1-1v-3.4h1c2.3 0 4.3-1.6 4.3-3.7 0-2-1.9-3.7-4.3-3.7h-2zm4.3 3.7c0 1.1-1.2 1.8-2.4 1.8h-1v-3.6h1c1.3 0 2.4.9 2.4 1.8z"/>
</svg>