<svg xmlns="http://www.w3.org/2000/svg" xml:space="preserve" viewBox="0 0 24 24">
  <circle cx="12" cy="12" r="12" fill="#8BC34A"/>
  <path fill="#fff" d="M3 9.3v6.3c0 2 1.6 3.6 3.6 3.6h10.8c2 0 3.6-1.6 3.6-3.6V9.3c-.3.2-.6.5-.9.7-.1.1-.3.2-.4.3-.2.1-.3.3-.5.4v4.9c0 1-.8 1.8-1.8 1.8H6.6c-1 0-1.8-.8-1.8-1.8v-4.9c-.2-.1-.4-.3-.5-.4-.1-.1-.3-.2-.4-.3-.3-.2-.6-.5-.9-.7z" opacity=".5"/>
  <path fill="#fff" d="M3 8.4c0-2 1.6-3.6 3.6-3.6h10.8c2 0 3.6 1.6 3.6 3.6v.9c-.4.4-.9.7-1.3 1-.6.5-1.4 1.1-2.3 1.7-.9.6-1.9 1.3-2.8 1.8-.9.5-1.8.9-2.6.9s-1.8-.4-2.6-.9c-.9-.5-1.9-1.1-2.8-1.8-.9-.6-1.7-1.3-2.3-1.7-.4-.3-.9-.6-1.3-1v-.9zm1.8 0c.2.2.4.3.6.5.6.5 1.4 1.1 2.2 1.7.9.6 1.8 1.2 2.6 1.6.9.5 1.5.7 1.8.7.3 0 .9-.2 1.8-.7.8-.4 1.7-1 2.6-1.6.9-.6 1.6-1.2 2.2-1.7.2-.2.5-.4.6-.5 0-1-.8-1.8-1.8-1.8H6.6c-1 0-1.8.8-1.8 1.8z"/>
</svg>