<svg xmlns="http://www.w3.org/2000/svg" xml:space="preserve" viewBox="0 0 24 24">
  <circle cx="12" cy="12" r="12" fill="#5da8dc"/>
  <path fill="#fff" d="M9.6 18.5c5.6 0 8.7-4.6 8.7-8.7v-.4c.6-.4 1.1-1 1.5-1.6-.5.2-1.1.4-1.7.5.6-.4 1.1-1 1.3-1.7-.6.4-1.3.6-1.9.7-.6-.6-1.3-1-2.2-1-1.7 0-3 1.4-3 3 0 .2 0 .5.1.7C9.8 10 7.5 8.8 6 7c-.3.4-.4 1-.4 1.5 0 1.1.5 2 1.4 2.5-.5 0-1-.1-1.4-.4 0 1.5 1 2.7 2.4 3-.3.1-.5.1-.8.1-.2 0-.4 0-.6-.1.4 1.2 1.5 2.1 2.8 2.1-1 .8-2.4 1.3-3.8 1.3h-.7c1.4 1 3 1.5 4.7 1.5"/>
</svg>