<svg xmlns="http://www.w3.org/2000/svg" xml:space="preserve" viewBox="0 0 384 256">
  <path fill="#0a0b09" d="M56 12v232h140.7c85 0 131.2-39.6 131.2-116.3C328 49 277.9 12 196.8 12H56zM196.8 0C321.4 0 340 80 340 127.7c0 82.7-50.9 128.3-143.2 128.3H44V0h152.8z"/>
  <path fill="#d50172" d="M142.9 91.7v26.2h8c5.6 0 10.7-1.6 10.7-13.3 0-11.4-5.7-12.9-10.7-12.9h-8zm133.8-13h13v39.2h19.2c-5.3-71.1-61.1-86.5-111.9-86.5h-54.1v47.3h8c14.6 0 23.7 9.9 23.7 25.9 0 16.5-8.9 26.3-23.7 26.3h-8v94.7H197c82.5 0 111.3-38.4 112.3-94.7h-32.6V78.7zm-36.2 29.1h9.4L245.6 93h-.8l-4.3 14.8zm-20.2 23.1L236 78.7h18.5l15.7 52.2h-13.5l-2.9-10.1h-17l-3 10.1h-13.5zm-6.3-13v13h-32.1V78.7H213v13h-18.1v6H212v13h-17.1v7.1c7.3.1 19.1.1 19.1.1z"/>
  <path d="M125.9 104.8c0 15.5-12.5 28-28 28s-28-12.6-28-28c0-15.5 12.5-28 28-28 15.4 0 28 12.5 28 28M75.4 225.5h45.1v-80.3H75.4v80.3z"/>
</svg>