<?xml version="1.0" encoding="utf-8"?>
<!-- Generator: Adobe Illustrator 26.5.0, SVG Export Plug-In . SVG Version: 6.00 Build 0)  -->
<svg version="1.1" id="Layer_1" xmlns="http://www.w3.org/2000/svg" xmlns:xlink="http://www.w3.org/1999/xlink" x="0px" y="0px"
	 viewBox="0 0 384 256" style="enable-background:new 0 0 384 256;" xml:space="preserve">
<style type="text/css">
	.st0{display:none;}
	.st1{display:inline;}
	.st2{fill:#273D82;}
	.st3{fill:#4B9BD5;}
	.st4{fill-rule:evenodd;clip-rule:evenodd;fill:#2DBDEF;}
	.st5{fill-rule:evenodd;clip-rule:evenodd;fill:#131E32;}
</style>
<g id="Layer_1_00000168082708293857041160000006080321832805304503_" class="st0">
	<g id="g10" transform="matrix(1.25 0 0 -1.25 0 140.375)" class="st1">
		<g id="g12" transform="scale(.1)">
			<path id="path14" class="st2" d="M368.6,507H129.7c-16.4,0-30.3-11.8-32.8-27.9L0.3-131.7c-1.9-12,7.4-22.9,19.7-22.9h114
				c16.4,0,30.3,11.8,32.8,28l26.1,164.7c2.5,16.1,16.5,28,32.8,28h75.6c157.4,0,248.2,75.9,272,226.4
				c10.7,65.8,0.5,117.5-30.5,153.8C508.8,485.9,448.6,507,368.6,507z M396.2,283.9c-13.1-85.5-78.6-85.5-141.9-85.5h-36.1
				L243.5,358c1.5,9.6,9.9,16.8,19.7,16.8h16.5c43.1,0,83.9,0,104.9-24.5C397.2,335.7,401,313.9,396.2,283.9"/>
			<path id="path16" class="st2" d="M1082.9,286.7H968.5c-9.7,0-18.2-7.1-19.7-16.8l-5.1-31.9l-8,11.6
				c-24.8,35.8-80,47.8-135.1,47.8c-126.4,0-234.4-95.5-255.5-229.4c-10.9-66.8,4.6-130.7,42.6-175.2c34.9-41,84.8-58,144.1-58
				c101.9,0,158.4,65.3,158.4,65.3l-5.1-31.7c-1.9-12.1,7.4-23,19.6-23h103.1c16.4,0,30.2,11.8,32.8,28l61.8,390.4
				C1104.4,275.8,1095.1,286.7,1082.9,286.7z M923.4,64.7c-11-65.2-62.9-108.9-129.1-108.9c-33.2,0-59.8,10.6-76.8,30.8
				c-16.9,20-23.3,48.4-18,80.1c10.3,64.6,63.1,109.8,128.2,109.8c32.5,0,58.9-10.8,76.3-31.1C921.5,124.8,928.4,96.2,923.4,64.7"/>
			<path id="path18" class="st2" d="M1692.3,286.7h-115c-11,0-21.3-5.4-27.5-14.5L1391.2,39.3L1324,263c-4.2,14-17.2,23.6-31.9,23.6
				h-113c-13.7,0-23.3-13.4-18.9-26.3l126.7-370.5l-119.1-167.6c-9.4-13.2,0.1-31.3,16.2-31.3h114.8c10.9,0,21.1,5.3,27.3,14.2
				l382.4,550.3C1717.8,268.6,1708.4,286.7,1692.3,286.7"/>
			<path id="path20" class="st3" d="M2073,507h-239c-16.3,0-30.2-11.8-32.8-27.9l-96.6-610.8c-1.9-12,7.4-22.9,19.6-22.9h122.6
				c11.4,0,21.1,8.3,22.9,19.6l27.4,173.1c2.5,16.1,16.5,28,32.8,28h75.6c157.4,0,248.2,75.9,272,226.4
				c10.7,65.8,0.4,117.5-30.5,153.8C2213.1,485.9,2152.9,507,2073,507z M2100.5,283.9c-13-85.5-78.5-85.5-141.9-85.5h-36l25.3,159.6
				c1.5,9.6,9.8,16.8,19.6,16.8h16.5c43.1,0,83.9,0,104.9-24.5C2101.5,335.7,2105.3,313.9,2100.5,283.9"/>
			<path id="path22" class="st3" d="M2787.2,286.7h-114.4c-9.8,0-18.2-7.1-19.6-16.8l-5.1-31.9l-8,11.6
				c-24.8,35.8-80,47.8-135.1,47.8c-126.4,0-234.4-95.5-255.4-229.4c-10.9-66.8,4.6-130.7,42.6-175.2c34.9-41,84.8-58,144.1-58
				c101.9,0,158.4,65.3,158.4,65.3l-5.1-31.7c-1.9-12.1,7.4-23,19.7-23h103c16.3,0,30.2,11.8,32.8,28l61.9,390.4
				C2808.8,275.8,2799.4,286.7,2787.2,286.7L2787.2,286.7z M2627.7,64.7c-11-65.2-62.9-108.9-129.1-108.9
				c-33.2,0-59.8,10.6-76.8,30.8c-16.9,20-23.3,48.4-18,80.1c10.4,64.6,63.1,109.8,128.2,109.8c32.5,0,58.9-10.8,76.3-31.1
				C2625.8,124.8,2632.7,96.2,2627.7,64.7"/>
			<path id="path24" class="st3" d="M2922.1,490.2L2824-131.7c-1.9-12,7.4-22.9,19.6-22.9h98.6c16.4,0,30.3,11.8,32.8,28l96.7,610.7
				c1.9,12.1-7.4,23-19.6,23h-110.4C2932,507,2923.6,499.9,2922.1,490.2"/>
		</g>
	</g>
</g>
<g id="_2960056556176">
	<path class="st4" d="M56.4,100.4H5.3c-1.7,0-3.2,1.5-3.2,3.2v5.8c0,1.8,1.5,3.2,3.2,3.2h51.1c1.8,0,3.2-1.5,3.2-3.2v-5.7
		C59.7,101.9,58.2,100.4,56.4,100.4L56.4,100.4z M56.4,132.5H5.3c-0.8,0-1.7,0.3-2.2,1c-0.6,0.6-1,1.4-1,2.3v5.8
		c0,1.8,1.5,3.2,3.2,3.2h51.1c1.8,0,3.2-1.4,3.2-3.2v-5.8C59.6,133.9,58.2,132.5,56.4,132.5z M34.1,148.6H5.3c-0.8,0-1.7,0.3-2.2,1
		c-0.6,0.6-1,1.4-1,2.3v5.8c0,1.8,1.5,3.2,3.2,3.2H34c1.8,0,3.2-1.5,3.2-3.2v-5.8C37.3,150,35.9,148.6,34.1,148.6L34.1,148.6z
		 M59.7,116.5H5.3c-0.8,0-1.7,0.3-2.2,1c-0.6,0.6-1,1.4-1,2.3v5.8c0,1.8,1.5,3.2,3.2,3.2h54.3c1.8,0,3.2-1.5,3.2-3.2v-5.8
		C62.8,118,61.4,116.5,59.7,116.5z"/>
	<path class="st5" d="M119.1,113.4c-1.6-1.7-3.4-2.9-5.5-3.8c-2.1-0.9-4.3-1.3-6.6-1.3c-2.2-0.1-4.4,0.4-6.4,1.4
		c-1.3,0.6-2.5,1.5-3.6,2.6v-1c0-0.5-0.2-1-0.5-1.4s-0.8-0.6-1.4-0.6H88c-0.5,0-1,0.2-1.3,0.6c-0.4,0.4-0.6,0.9-0.5,1.4v47.6
		c0,0.5,0.2,1,0.5,1.4c0.4,0.4,0.8,0.6,1.3,0.6h7.3c0.5,0,1-0.2,1.3-0.6c0.4-0.3,0.6-0.8,0.6-1.4v-16.3c1,1.1,2.4,2,3.8,2.5
		c1.9,0.7,3.9,1.1,5.9,1.1c2.3,0,4.6-0.4,6.7-1.3c2.1-0.9,4-2.2,5.6-3.8c1.7-1.7,2.9-3.8,3.8-6c1-2.5,1.5-5.2,1.4-7.8
		c0.1-2.7-0.4-5.3-1.4-7.9C122.1,117.2,120.8,115.1,119.1,113.4L119.1,113.4L119.1,113.4z M112.6,130.6c-0.4,1-1,1.9-1.7,2.7
		c-1.5,1.6-3.6,2.5-5.7,2.5c-1.1,0-2.2-0.2-3.2-0.7c-1-0.4-1.8-1-2.6-1.8c-0.8-0.8-1.3-1.7-1.7-2.7c-0.8-2.2-0.8-4.5,0-6.7
		c0.4-1,1-1.9,1.7-2.7c0.8-0.8,1.7-1.4,2.6-1.8c1-0.4,2.1-0.7,3.2-0.7c1.1,0,2.2,0.2,3.2,0.7c1,0.4,1.8,1,2.5,1.8
		c0.8,0.8,1.3,1.7,1.7,2.7C113.5,126.1,113.4,128.5,112.6,130.6z M163.3,109.3h-7.2c-0.5,0-1,0.2-1.3,0.6c-0.4,0.4-0.6,0.9-0.6,1.5
		v0.9c-0.9-1.1-2-1.9-3.2-2.5c-2-1-4.1-1.4-6.3-1.4c-4.6,0-9,1.8-12.3,5.1c-1.7,1.7-3.1,3.8-3.9,6c-1,2.5-1.5,5.2-1.5,7.9
		c-0.1,2.7,0.4,5.3,1.5,7.9c1,2.2,2.2,4.3,3.9,6c3.2,3.3,7.7,5.2,12.3,5.2c2.2,0.1,4.3-0.4,6.3-1.4c1.2-0.6,2.4-1.5,3.3-2.5v1
		c0,0.5,0.2,1,0.6,1.4c0.4,0.3,0.8,0.6,1.3,0.6h7.2c0.5,0,1-0.2,1.3-0.6c0.4-0.4,0.6-0.9,0.6-1.4v-32c0-0.5-0.2-1-0.5-1.4
		C164.3,109.5,163.8,109.3,163.3,109.3L163.3,109.3L163.3,109.3z M153.5,130.6c-0.4,1-1,1.9-1.7,2.7c-0.8,0.8-1.6,1.4-2.5,1.8
		c-2,1-4.4,1-6.4,0c-1-0.4-1.8-1.1-2.6-1.8c-0.8-0.8-1.3-1.7-1.7-2.7c-0.8-2.2-0.8-4.5,0-6.7c0.4-1,1-1.8,1.7-2.7
		c0.8-0.8,1.6-1.4,2.6-1.8c2-1,4.4-1,6.4,0c1,0.4,1.8,1,2.5,1.8c0.7,0.8,1.3,1.7,1.7,2.7C154.4,126.1,154.4,128.5,153.5,130.6z
		 M234.9,126.3c-1-0.9-2.2-1.7-3.5-2.2c-1.3-0.6-2.8-1-4.2-1.3l-5.5-1.1c-1.4-0.3-2.4-0.6-2.9-1.1c-0.4-0.3-0.8-0.8-0.8-1.4
		c0-0.6,0.3-1.1,1-1.5c1-0.5,2-0.8,3.1-0.7c1.4,0,2.8,0.3,4.1,0.8c1.3,0.6,2.5,1.1,3.6,1.9c1.6,1,3,0.8,3.9-0.3l2.6-3
		c0.5-0.5,0.8-1.1,0.8-1.8c-0.1-0.8-0.4-1.4-1-1.9c-1.1-1-2.9-2-5.2-3s-5.3-1.5-8.8-1.5c-2.2-0.1-4.3,0.3-6.3,0.9
		c-1.7,0.6-3.4,1.4-4.8,2.5c-1.3,1-2.4,2.3-3.1,3.8c-0.7,1.5-1.1,3.1-1.1,4.6c0,3,0.9,5.4,2.7,7.2c1.8,1.8,4.1,3,7.1,3.6l5.7,1.3
		c1.2,0.2,2.5,0.6,3.6,1.1c0.6,0.3,1,0.9,1,1.6c0,0.6-0.3,1.2-1,1.7c-0.7,0.5-1.8,0.8-3.4,0.8s-3.1-0.3-4.5-1
		c-1.3-0.6-2.5-1.5-3.7-2.4c-0.5-0.4-1-0.7-1.7-1c-0.6-0.2-1.5,0-2.3,0.7l-3.1,2.4c-0.9,0.6-1.3,1.7-1.1,2.7c0.2,1.1,1,2.1,2.6,3.3
		c3.9,2.7,8.7,4.1,13.4,3.9c2.2,0,4.5-0.3,6.6-0.9c1.8-0.6,3.6-1.4,5.1-2.5c1.4-1,2.5-2.4,3.3-3.9c0.8-1.5,1.1-3.2,1.1-4.9
		c0.1-1.5-0.3-3.1-0.9-4.5C236.7,128.3,235.9,127.2,234.9,126.3L234.9,126.3L234.9,126.3z M266.3,135c-0.3-0.6-0.9-1-1.6-1.1
		c-0.6,0-1.3,0.2-1.8,0.6c-0.9,0.6-1.9,0.9-2.9,1c-0.3,0-0.7-0.1-1-0.1c-0.4-0.1-0.7-0.3-1-0.5c-0.3-0.3-0.6-0.7-0.8-1.1
		c-0.3-0.6-0.4-1.3-0.3-1.9v-13h9.3c0.6,0,1.1-0.3,1.5-0.6s0.6-0.8,0.6-1.4v-5.5c0-0.6-0.2-1.1-0.6-1.4c-0.4-0.4-0.9-0.6-1.4-0.6
		h-9.4v-8.9c0-0.5-0.2-1.1-0.6-1.4c-0.4-0.3-0.8-0.5-1.3-0.6h-7.3c-0.5,0-1,0.2-1.4,0.6c-0.4,0.4-0.6,0.9-0.6,1.4v8.9h-4.1
		c-0.5,0-1,0.2-1.4,0.6c-0.3,0.4-0.5,0.9-0.5,1.4v5.5c0,0.5,0.2,1,0.5,1.4c0.3,0.4,0.8,0.6,1.4,0.6h4.1v15.5
		c-0.1,1.8,0.3,3.7,1.1,5.3c0.7,1.4,1.6,2.6,2.8,3.6c1.1,1,2.5,1.7,3.9,2c1.5,0.4,3,0.7,4.5,0.7c2,0,4-0.3,5.9-1
		c1.8-0.6,3.4-1.6,4.6-2.9c0.8-0.8,0.9-2.2,0.3-3.1L266.3,135L266.3,135z M305.6,109.3h-7.2c-0.5,0-1,0.2-1.3,0.6
		c-0.4,0.4-0.6,0.9-0.6,1.5v0.9c-0.9-1.1-2-1.9-3.2-2.5c-2-1-4.1-1.4-6.3-1.4c-4.6,0-9,1.8-12.3,5.1c-1.7,1.7-3.1,3.8-3.9,6
		c-1,2.5-1.5,5.2-1.5,7.8c-0.1,2.7,0.4,5.3,1.5,7.9c0.9,2.2,2.3,4.3,3.9,6c3.2,3.3,7.6,5.2,12.3,5.2c2.2,0.1,4.3-0.4,6.3-1.3
		c1.3-0.6,2.4-1.5,3.3-2.5v1c0,0.5,0.2,1,0.6,1.3c0.4,0.4,0.8,0.6,1.3,0.6h7.2c1.1,0,1.9-0.8,1.9-1.9v-32c0-0.5-0.2-1-0.5-1.4
		C306.7,109.5,306.2,109.3,305.6,109.3L305.6,109.3L305.6,109.3z M296,130.7c-0.4,1-1,1.9-1.7,2.7c-0.8,0.8-1.6,1.4-2.5,1.8
		c-1,0.4-2.1,0.7-3.2,0.7c-1.1,0-2.2-0.3-3.2-0.7c-1-0.4-1.8-1.1-2.6-1.8c-0.8-0.8-1.3-1.7-1.7-2.7c-0.8-2.2-0.8-4.5,0-6.7
		c0.4-1,1-1.9,1.7-2.7c0.8-0.8,1.7-1.4,2.6-1.8c1-0.4,2.1-0.7,3.2-0.7c1.1,0,2.2,0.2,3.2,0.7c1,0.4,1.8,1,2.5,1.8s1.3,1.7,1.7,2.7
		C296.8,126.1,296.8,128.5,296,130.7z M345.1,134.6l-4.1-3.2c-0.8-0.6-1.5-0.8-2.2-0.6c-0.6,0.3-1.1,0.6-1.5,1.1
		c-0.9,1.1-2,2-3.1,2.9c-1.3,0.7-2.6,1.1-4,1c-1.7,0-3.2-0.4-4.5-1.4c-1.3-1-2.4-2.2-2.9-3.8c-0.4-1.1-0.6-2.2-0.6-3.2
		c0-1.1,0.2-2.2,0.6-3.4c0.4-1,0.9-1.9,1.7-2.7s1.6-1.4,2.5-1.8c1-0.4,2.1-0.7,3.2-0.7c1.4-0.1,2.8,0.3,4,1c1.2,0.8,2.2,1.7,3.1,2.9
		c0.4,0.4,0.9,0.8,1.5,1.1c0.6,0.3,1.4,0.1,2.2-0.6l4.1-3.1c0.5-0.3,0.9-0.8,1.1-1.4c0.3-0.6,0.2-1.3-0.2-1.9
		c-1.6-2.5-3.8-4.5-6.4-6c-2.7-1.5-6-2.4-9.6-2.4c-2.5,0-5.1,0.5-7.5,1.5c-2.3,1-4.3,2.3-6,4c-1.7,1.7-3.1,3.8-4.1,6
		c-2,4.8-2,10.1,0,14.9c1,2.2,2.3,4.3,4.1,6c3.6,3.6,8.5,5.5,13.5,5.5c3.6,0,6.9-0.8,9.6-2.4c2.6-1.5,4.8-3.5,6.4-6
		c0.3-0.6,0.4-1.3,0.2-1.8C346,135.5,345.6,135,345.1,134.6L345.1,134.6L345.1,134.6z M383.4,142L372,125.4l9.7-12.8
		c0.4-0.6,0.6-1.4,0.4-2.1c-0.2-0.5-0.6-1-1.8-1h-7.7c-0.4,0-0.9,0.1-1.3,0.3c-0.5,0.3-0.9,0.6-1.1,1.1l-7.8,10.9h-1.8V96
		c0-0.5-0.2-1-0.6-1.4c-0.4-0.4-0.8-0.6-1.3-0.6h-7.2c-0.5,0-1,0.2-1.4,0.6c-0.4,0.4-0.6,0.8-0.6,1.4v47.4c0,0.6,0.2,1,0.6,1.4
		c0.4,0.4,0.9,0.6,1.4,0.6h7.2c0.5,0,1-0.2,1.3-0.6c0.4-0.4,0.6-0.9,0.6-1.4v-12.5h2l8.5,13c0.5,1,1.5,1.5,2.5,1.5h8.1
		c1.2,0,1.7-0.6,2-1.1C383.9,143.4,383.8,142.6,383.4,142L383.4,142L383.4,142z M204.1,109.3H196c-0.6,0-1.2,0.2-1.7,0.6
		c-0.4,0.4-0.6,0.8-0.8,1.3l-6,22.1h-1.5l-6.4-22.1c-0.1-0.4-0.3-0.9-0.6-1.3c-0.4-0.4-0.9-0.7-1.5-0.7h-8.2c-1.1,0-1.7,0.3-2,1.1
		c-0.2,0.6-0.2,1.3,0,2l10.2,31.2c0.2,0.4,0.4,1,0.8,1.3c0.4,0.4,1,0.6,1.5,0.6h4.3l-0.4,1l-1,2.9c-0.3,0.9-0.8,1.7-1.6,2.2
		c-0.7,0.5-1.5,0.8-2.4,0.8c-0.8,0-1.5-0.2-2.2-0.4c-0.7-0.3-1.3-0.7-1.9-1.1c-0.5-0.4-1.1-0.6-1.8-0.6h-0.1
		c-0.8,0.1-1.5,0.4-1.8,1.1l-2.5,3.8c-1,1.7-0.4,2.7,0.2,3.2c1.4,1.3,3,2.2,4.8,2.8c2,0.7,4,1,6,1c3.7,0,6.7-1,9.1-3
		c2.4-2.2,4.3-5,5.2-8.1l11.8-38.5c0.3-0.7,0.3-1.4,0.1-2C205.6,109.8,205.2,109.3,204.1,109.3L204.1,109.3L204.1,109.3z"/>
</g>
</svg>
