<svg xmlns="http://www.w3.org/2000/svg" xml:space="preserve" viewBox="0 0 512 512">
  <circle cx="253.6" cy="302.8" r="122.7" fill="#e9e9ea"/>
  <path fill="none" stroke="#d8d9d8" stroke-miterlimit="10" stroke-width="2" d="M116.5 406.7c-22.4-29.7-34.4-65.9-34.4-103C82.1 208.8 159 132 253.8 132c94.8 0 171.6 76.8 171.6 171.6.1 37.2-12 73.4-34.4 103.1"/>
  <path fill="#fff" stroke="#2a5183" stroke-miterlimit="10" stroke-width="2" d="M253.6 339.6c14.1 0 39.5-18.8 42.9-24.5s4.8-11.4 6.1-18.4c.3-1.7 5.1-10.9 6.1-12.3 5.8-7.7 6.1-30.7 6.1-30.7l-6.1-6.1s-1.5-19.3-2.3-28.7c-3.5-27.6-22.5-44.9-52.9-44.9s-49.3 17.3-52.9 44.9c-.9 9.5-2.3 28.7-2.3 28.7l-6.1 6.1s.4 23 6.1 30.7c1.1 1.4 5.8 10.6 6.1 12.3 1.4 7 2.7 12.7 6.1 18.4 3.6 5.7 29 24.5 43.1 24.5z"/>
  <path fill="#30c1e5" stroke="#2a5183" stroke-miterlimit="10" stroke-width="2" d="M253.6 462.3c43 0 82.2-14.9 110.4-42.9v-24.5c-3.4-12.3-13.3-18.6-24.5-24.5L296.6 352s-22.1 18.4-42.9 18.4-36.8-18.4-36.8-18.4l-49.1 18.4c-11.3 6-21.1 12.3-24.5 24.5v24.5c28.1 28 67.3 42.9 110.3 42.9z"/>
  <path fill="none" stroke="#2a5183" stroke-miterlimit="10" stroke-width="2" d="M216.8 351.9v-30.7m73.6 34.3v-34.3"/>
  <path fill="#ee5656" d="M12.9 256c7.1 0 12.9 5.7 12.9 12.7s-5.8 12.7-12.9 12.7S0 275.6 0 268.7 5.8 256 12.9 256zm449.5-52.6-2.4 7 4.4 5.9-7.3-.1-4.2 6-2.2-7-7-2.2 6-4.2-.1-7.3 5.9 4.4 6.9-2.5z"/>
  <path fill="#33c3e6" d="m117.1 91.9-4.1-1.4-3.5 2.6v-4.3l-3.5-2.5 4.1-1.3 1.3-4.1 2.5 3.5 4.3-.1-2.6 3.5 1.5 4.1zm-89 16.9c3.8 0 6.9 3.1 6.9 6.9s-3.1 6.9-6.9 6.9-6.9-3.1-6.9-6.9 3.1-6.9 6.9-6.9zm457.1 175.6c4.2 0 7.7 3.4 7.7 7.7 0 4.2-3.4 7.7-7.7 7.7s-7.7-3.4-7.7-7.7c0-4.3 3.5-7.7 7.7-7.7zM374.4 107.2c5.7 0 10.4 4.6 10.4 10.4s-4.6 10.4-10.4 10.4-10.4-4.6-10.4-10.4 4.7-10.4 10.4-10.4zM231.5 68.6l10.8-14.9 14.9 10.8-10.8 14.9-14.9-10.8z"/>
  <path fill="#cfcfce" d="M161.6 51.2h6.1v6.1h-6.1v-6.1zm292.1 310.1 17.5-5.7 5.7 17.5-17.5 5.7-5.7-17.5zM22.5 357h12.3v12.3H22.5V357zm7.7-151.9 8.2-9.1 9.1 8.2-8.2 9.1-9.1-8.2zm408-140.6-2.2 5.8-6.1 1-4-4.8 2.2-5.8 6.1-1 4 4.8zm-257.7 44-7.8 3.2-6.6-5.1 1.1-8.3 7.8-3.2 6.6 5.1-1.1 8.3zm130.9-6.6-5.3 1.1-3.6-4.1 1.7-5.1 5.3-1.1 3.6 4.1-1.7 5.1zm199.9 124.7-6.4 2.8-5.6-4.1.7-6.9 6.4-2.8 5.6 4.1-.7 6.9z"/>
  <path fill="#fcda00" d="M479.6 125.9c5.1 0 9.2 4.1 9.2 9.2s-4.1 9.2-9.2 9.2-9.2-4.1-9.2-9.2 4.1-9.2 9.2-9.2zm-382 16.3c2.5 0 4.6 2.1 4.6 4.6s-2.1 4.6-4.6 4.6-4.6-2.1-4.6-4.6 2.1-4.6 4.6-4.6zm227.3-92.5c3.5 0 6.4 2.9 6.4 6.4 0 3.5-2.9 6.4-6.4 6.4s-6.4-2.9-6.4-6.4c0-3.5 2.9-6.4 6.4-6.4zM64.1 73.9l3.6 2.6 4.2-1.5-1.3 4.2 2.7 3.5h-4.4l-2.5 3.7-1.4-4.2-4.3-1.2 3.6-2.6-.2-4.5z"/>
</svg>