<svg xmlns="http://www.w3.org/2000/svg" viewBox="0 0 242 128.2" style="enable-background:new 0 0 242 128.2" xml:space="preserve">
  <path fill="#181c32" d="M84.5 49.3 67.1 20C62.5 13.1 55.8 8.2 48.6 5.3 33.4-1.8 14.6-2.1 0 6.7l36.1 62.2v-.1c25.6 16.2 37.8.8 48.4-19.5z" class="logoshape1"/>
  <path fill="#181c32" d="M128 .2c-22.5 0-32.1 27.3-43.5 49.1C73.9 69.6 61.7 85 36.1 68.8v.1c1.4 2.5 3.1 5.5 4.8 8.5 23.1 40.5 47 78.6 74.5 22.7 3.8-7.2 6.5-21.2 12.6-21.2s8.9 13.9 12.6 21.1c27.5 55.9 51.4 17.8 74.6-22.7 1.7-3.1 3.4-6 4.8-8.5C167 102.4 171.4.2 128 .2z" class="logoshape2"/>
  <path fill="#fff" d="M218 .2c-13.3 0-24 10.7-24 24s10.7 24 24 24 24-10.7 24-24-10.7-24-24-24" class="logoshape3"/>
</svg>